<?xml version="1.0" encoding="UTF-8" standalone="no"?>
<svg
   version="1.1"
   viewBox="0.0 0.0 960.0 540.0"
   fill="none"
   stroke="none"
   stroke-linecap="square"
   stroke-miterlimit="10"
   id="svg162"
   sodipodi:docname="GEO Knowledge Hub - Package.pptx.svg"
   inkscape:version="1.2.2 (b0a8486541, 2022-12-01, custom)"
   xmlns:inkscape="http://www.inkscape.org/namespaces/inkscape"
   xmlns:sodipodi="http://sodipodi.sourceforge.net/DTD/sodipodi-0.dtd"
   xmlns="http://www.w3.org/2000/svg"
   xmlns:svg="http://www.w3.org/2000/svg">
  <defs
     id="defs166" />
  <sodipodi:namedview
     id="namedview164"
     pagecolor="#ffffff"
     bordercolor="#000000"
     borderopacity="0.25"
     inkscape:showpageshadow="2"
     inkscape:pageopacity="0.0"
     inkscape:pagecheckerboard="0"
     inkscape:deskcolor="#d1d1d1"
     showgrid="false"
     inkscape:zoom="1.0229167"
     inkscape:cx="480"
     inkscape:cy="270.3055"
     inkscape:window-width="1600"
     inkscape:window-height="824"
     inkscape:window-x="0"
     inkscape:window-y="19"
     inkscape:window-maximized="1"
     inkscape:current-layer="g160" />
  <clipPath
     id="g1aa7ecd2250_0_0.0">
    <path
       d="m0 0l960.0 0l0 540.0l-960.0 0l0 -540.0z"
       clip-rule="nonzero"
       id="path25" />
  </clipPath>
  <g
     clip-path="url(#g1aa7ecd2250_0_0.0)"
     id="g160">
    <path
       fill="#ffffff"
       d="m151.26509 379.4228l0 0c0 -6.337616 5.137665 -11.475281 11.475296 -11.475281l184.57697 0c3.0434265 0 5.962219 1.2089844 8.114258 3.361023c2.1520386 2.1520386 3.3610535 5.0708313 3.3610535 8.114258l0 45.89981c0 6.3376465 -5.137665 11.475311 -11.475311 11.475311l-184.57697 0c-6.337631 0 -11.475296 -5.137665 -11.475296 -11.475311z"
       fill-rule="evenodd"
       id="path30" />
    <path
       stroke="#595959"
       stroke-width="1.0"
       stroke-linejoin="round"
       stroke-linecap="butt"
       d="m151.26509 379.4228l0 0c0 -6.337616 5.137665 -11.475281 11.475296 -11.475281l184.57697 0c3.0434265 0 5.962219 1.2089844 8.114258 3.361023c2.1520386 2.1520386 3.3610535 5.0708313 3.3610535 8.114258l0 45.89981c0 6.3376465 -5.137665 11.475311 -11.475311 11.475311l-184.57697 0c-6.337631 0 -11.475296 -5.137665 -11.475296 -11.475311z"
       fill-rule="evenodd"
       id="path32" />
    <path
       fill="#000000"
       d="m240.10692 404.50333q-0.140625 2.0 -1.46875 3.140625q-1.3125 1.140625 -3.484375 1.140625q-2.375 0 -3.734375 -1.59375q-1.34375 -1.59375 -1.34375 -4.375l0 -0.765625q0 -1.765625 0.625 -3.125q0.625 -1.359375 1.78125 -2.078125q1.171875 -0.71875 2.703125 -0.71875q2.140625 0 3.4375 1.140625q1.296875 1.140625 1.5 3.203125l-2.53125 0q-0.09375 -1.1875 -0.671875 -1.71875q-0.5625 -0.546875 -1.734375 -0.546875q-1.265625 0 -1.90625 0.90625q-0.625 0.90625 -0.640625 2.828125l0 0.921875q0 2.0 0.609375 2.921875q0.609375 0.921875 1.90625 0.921875q1.171875 0 1.75 -0.53125q0.578125 -0.546875 0.671875 -1.671875l2.53125 0zm6.650238 -2.75q-0.5 -0.0625 -0.875 -0.0625q-1.390625 0 -1.8125 0.9375l0 5.984375l-2.453125 0l0 -9.15625l2.3125 0l0.0625 1.09375q0.734375 -1.265625 2.046875 -1.265625q0.40625 0 0.765625 0.109375l-0.046875 2.359375zm5.237686 7.03125q-2.015625 0 -3.28125 -1.234375q-1.265625 -1.234375 -1.265625 -3.296875l0 -0.234375q0 -1.375 0.53125 -2.453125q0.53125 -1.09375 1.5 -1.6875q0.984375 -0.59375 2.234375 -0.59375q1.890625 0 2.96875 1.1875q1.078125 1.1875 1.078125 3.359375l0 1.0l-5.828125 0q0.109375 0.890625 0.703125 1.4375q0.609375 0.546875 1.515625 0.546875q1.40625 0 2.203125 -1.03125l1.203125 1.34375q-0.546875 0.78125 -1.484375 1.21875q-0.9375 0.4375 -2.078125 0.4375zm-0.28125 -7.515625q-0.734375 0 -1.1875 0.5q-0.453125 0.484375 -0.578125 1.390625l3.40625 0l0 -0.1875q-0.015625 -0.8125 -0.4375 -1.25q-0.421875 -0.453125 -1.203125 -0.453125zm10.741333 7.34375q-0.171875 -0.328125 -0.25 -0.828125q-0.890625 1.0 -2.3125 1.0q-1.34375 0 -2.234375 -0.78125q-0.875 -0.78125 -0.875 -1.96875q0 -1.453125 1.078125 -2.21875q1.078125 -0.78125 3.109375 -0.796875l1.125 0l0 -0.53125q0 -0.625 -0.328125 -1.0q-0.3125 -0.390625 -1.015625 -0.390625q-0.625 0 -0.984375 0.296875q-0.34375 0.296875 -0.34375 0.8125l-2.4375 0q0 -0.796875 0.484375 -1.46875q0.5 -0.671875 1.390625 -1.0625q0.890625 -0.390625 2.015625 -0.390625q1.6875 0 2.671875 0.859375q1.0 0.84375 1.0 2.390625l0 3.96875q0.015625 1.296875 0.375 1.96875l0 0.140625l-2.46875 0zm-2.03125 -1.703125q0.546875 0 1.0 -0.234375q0.453125 -0.25 0.671875 -0.65625l0 -1.5625l-0.90625 0q-1.84375 0 -1.953125 1.265625l-0.015625 0.140625q0 0.453125 0.3125 0.75q0.328125 0.296875 0.890625 0.296875zm8.930817 -9.703125l0 2.25l1.578125 0l0 1.796875l-1.578125 0l0 4.5625q0 0.515625 0.1875 0.734375q0.203125 0.21875 0.765625 0.21875q0.40625 0 0.71875 -0.0625l0 1.859375q-0.71875 0.21875 -1.484375 0.21875q-2.578125 0 -2.625 -2.59375l0 -4.9375l-1.34375 0l0 -1.796875l1.34375 0l0 -2.25l2.4375 0zm7.151886 11.578125q-2.015625 0 -3.28125 -1.234375q-1.265625 -1.234375 -1.265625 -3.296875l0 -0.234375q0 -1.375 0.53125 -2.453125q0.53125 -1.09375 1.5 -1.6875q0.984375 -0.59375 2.234375 -0.59375q1.890625 0 2.96875 1.1875q1.078125 1.1875 1.078125 3.359375l0 1.0l-5.828125 0q0.109375 0.890625 0.703125 1.4375q0.609375 0.546875 1.515625 0.546875q1.40625 0 2.203125 -1.03125l1.203125 1.34375q-0.546875 0.78125 -1.484375 1.21875q-0.9375 0.4375 -2.078125 0.4375zm-0.28125 -7.515625q-0.734375 0 -1.1875 0.5q-0.453125 0.484375 -0.578125 1.390625l3.40625 0l0 -0.1875q-0.015625 -0.8125 -0.4375 -1.25q-0.421875 -0.453125 -1.203125 -0.453125z"
       fill-rule="nonzero"
       id="path34" />
    <path
       fill="#ffffff"
       d="m402.01312 181.72726l0 0c0 -6.337631 5.137665 -11.475296 11.475281 -11.475296l184.57697 0c3.043457 0 5.962219 1.2089996 8.114258 3.3610382c2.1520386 2.1520386 3.361084 5.070816 3.361084 8.114258l0 45.899796c0 6.337631 -5.1376953 11.475296 -11.475342 11.475296l-184.57697 0c-6.337616 0 -11.475281 -5.137665 -11.475281 -11.475296z"
       fill-rule="evenodd"
       id="path36" />
    <path
       stroke="#595959"
       stroke-width="1.0"
       stroke-linejoin="round"
       stroke-linecap="butt"
       d="m402.01312 181.72726l0 0c0 -6.337631 5.137665 -11.475296 11.475281 -11.475296l184.57697 0c3.043457 0 5.962219 1.2089996 8.114258 3.3610382c2.1520386 2.1520386 3.361084 5.070816 3.361084 8.114258l0 45.899796c0 6.337631 -5.1376953 11.475296 -11.475342 11.475296l-184.57697 0c-6.337616 0 -11.475281 -5.137665 -11.475281 -11.475296z"
       fill-rule="evenodd"
       id="path38" />
    <path
       fill="#000000"
       d="m499.39273 197.57341l-4.875 0l0 3.296875l5.71875 0l0 2.046875l-8.265625 0l0 -12.3125l8.25 0l0 2.046875l-5.703125 0l0 2.9375l4.875 0l0 1.984375zm1.6331177 0.703125q0 -2.140625 0.953125 -3.40625q0.96875 -1.28125 2.625 -1.28125q1.34375 0 2.21875 1.0l0 -4.671875l2.453125 0l0 13.0l-2.21875 0l-0.109375 -0.96875q-0.921875 1.140625 -2.359375 1.140625q-1.609375 0 -2.59375 -1.265625q-0.96875 -1.28125 -0.96875 -3.546875zm2.4375 0.171875q0 1.28125 0.453125 1.96875q0.453125 0.6875 1.296875 0.6875q1.140625 0 1.609375 -0.953125l0 -3.609375q-0.46875 -0.953125 -1.59375 -0.953125q-1.765625 0 -1.765625 2.859375zm10.279633 4.46875l-2.453125 0l0 -9.15625l2.453125 0l0 9.15625zm-2.59375 -11.53125q0 -0.546875 0.359375 -0.890625q0.375 -0.359375 1.015625 -0.359375q0.625 0 0.984375 0.359375q0.375 0.34375 0.375 0.890625q0 0.5625 -0.375 0.921875q-0.375 0.359375 -1.0 0.359375q-0.609375 0 -0.984375 -0.359375q-0.375 -0.359375 -0.375 -0.921875zm7.5317993 0.125l0 2.25l1.578125 0l0 1.796875l-1.578125 0l0 4.5625q0 0.515625 0.1875 0.734375q0.203125 0.21875 0.765625 0.21875q0.40625 0 0.71875 -0.0625l0 1.859375q-0.71875 0.21875 -1.484375 0.21875q-2.578125 0 -2.625 -2.59375l0 -4.9375l-1.34375 0l0 -1.796875l1.34375 0l0 -2.25l2.4375 0z"
       fill-rule="nonzero"
       id="path40" />
    <path
       fill="#000000"
       d="m428.09268 216.03342q0 -1.46875 0.390625 -2.828125q0.40625 -1.359375 1.1875 -2.453125q0.78125 -1.109375 1.609375 -1.5625l0.25 0.78125q-0.953125 0.734375 -1.5625 2.234375q-0.59375 1.5 -0.65625 3.34375l-0.015625 0.5625q0 2.515625 0.921875 4.359375q0.5625 1.109375 1.3125 1.734375l-0.25 0.734375q-0.859375 -0.484375 -1.640625 -1.625q-1.546875 -2.203125 -1.546875 -5.28125zm10.024261 -0.34375l-3.984375 0l0 4.1875l-1.25 0l0 -9.46875l5.875 0l0 1.015625l-4.625 0l0 3.25l3.984375 0l0 1.015625zm3.2575378 4.1875l-1.203125 0l0 -7.046875l1.203125 0l0 7.046875zm-1.296875 -8.90625q0 -0.296875 0.171875 -0.5q0.1875 -0.203125 0.53125 -0.203125q0.359375 0 0.53125 0.203125q0.1875 0.203125 0.1875 0.5q0 0.296875 -0.1875 0.5q-0.171875 0.1875 -0.53125 0.1875q-0.34375 0 -0.53125 -0.1875q-0.171875 -0.203125 -0.171875 -0.5zm4.531311 8.90625l-1.203125 0l0 -10.0l1.203125 0l0 10.0zm4.8437805 0.125q-1.421875 0 -2.328125 -0.9375q-0.890625 -0.9375 -0.890625 -2.515625l0 -0.21875q0 -1.046875 0.390625 -1.859375q0.40625 -0.828125 1.125 -1.296875q0.71875 -0.46875 1.5625 -0.46875q1.375 0 2.125 0.90625q0.765625 0.90625 0.765625 2.59375l0 0.5l-4.765625 0q0.015625 1.03125 0.59375 1.671875q0.59375 0.640625 1.484375 0.640625q0.640625 0 1.078125 -0.25q0.453125 -0.265625 0.78125 -0.6875l0.734375 0.5625q-0.875 1.359375 -2.65625 1.359375zm-0.140625 -6.3125q-0.734375 0 -1.234375 0.53125q-0.484375 0.53125 -0.609375 1.484375l3.53125 0l0 -0.078125q-0.046875 -0.921875 -0.5 -1.421875q-0.4375 -0.515625 -1.1875 -0.515625zm8.389191 4.3125q0 -0.484375 -0.375 -0.75q-0.359375 -0.265625 -1.28125 -0.453125q-0.90625 -0.203125 -1.453125 -0.46875q-0.53125 -0.28125 -0.796875 -0.65625q-0.25 -0.390625 -0.25 -0.90625q0 -0.859375 0.734375 -1.453125q0.734375 -0.609375 1.875 -0.609375q1.1875 0 1.9375 0.625q0.75 0.609375 0.75 1.578125l-1.21875 0q0 -0.5 -0.421875 -0.859375q-0.421875 -0.359375 -1.046875 -0.359375q-0.65625 0 -1.03125 0.296875q-0.375 0.28125 -0.375 0.75q0 0.421875 0.34375 0.65625q0.34375 0.21875 1.25 0.421875q0.90625 0.203125 1.453125 0.484375q0.5625 0.265625 0.828125 0.671875q0.28125 0.390625 0.28125 0.953125q0 0.9375 -0.765625 1.515625q-0.75 0.5625 -1.953125 0.5625q-0.84375 0 -1.5 -0.296875q-0.640625 -0.296875 -1.015625 -0.828125q-0.359375 -0.546875 -0.359375 -1.171875l1.203125 0q0.03125 0.609375 0.484375 0.96875q0.453125 0.34375 1.1875 0.34375q0.6875 0 1.09375 -0.265625q0.421875 -0.28125 0.421875 -0.75zm2.7316895 3.765625l-0.6875 -0.46875q0.609375 -0.859375 0.640625 -1.765625l0 -1.078125l1.171875 0l0 0.9375q0 0.65625 -0.328125 1.3125q-0.3125 0.65625 -0.796875 1.0625zm7.0875244 -8.9375l0.03125 0.78125q0.765625 -0.90625 2.09375 -0.90625q1.46875 0 2.0 1.125q0.359375 -0.5 0.921875 -0.8125q0.5625 -0.3125 1.328125 -0.3125q2.3125 0 2.359375 2.453125l0 4.71875l-1.203125 0l0 -4.640625q0 -0.765625 -0.34375 -1.140625q-0.34375 -0.375 -1.171875 -0.375q-0.65625 0 -1.109375 0.40625q-0.4375 0.40625 -0.515625 1.078125l0 4.671875l-1.203125 0l0 -4.609375q0 -1.546875 -1.5 -1.546875q-1.1875 0 -1.625 1.015625l0 5.140625l-1.203125 0l0 -7.046875l1.140625 0zm13.462891 7.171875q-1.421875 0 -2.328125 -0.9375q-0.890625 -0.9375 -0.890625 -2.515625l0 -0.21875q0 -1.046875 0.390625 -1.859375q0.40625 -0.828125 1.125 -1.296875q0.71875 -0.46875 1.5625 -0.46875q1.375 0 2.125 0.90625q0.765625 0.90625 0.765625 2.59375l0 0.5l-4.765625 0q0.015625 1.03125 0.59375 1.671875q0.59375 0.640625 1.484375 0.640625q0.640625 0 1.078125 -0.25q0.453125 -0.265625 0.78125 -0.6875l0.734375 0.5625q-0.875 1.359375 -2.65625 1.359375zm-0.140625 -6.3125q-0.734375 0 -1.234375 0.53125q-0.484375 0.53125 -0.609375 1.484375l3.53125 0l0 -0.078125q-0.046875 -0.921875 -0.5 -1.421875q-0.4375 -0.515625 -1.1875 -0.515625zm5.9204407 -2.5625l0 1.703125l1.3125 0l0 0.9375l-1.3125 0l0 4.359375q0 0.421875 0.171875 0.640625q0.171875 0.21875 0.59375 0.21875q0.21875 0 0.578125 -0.078125l0 0.96875q-0.46875 0.125 -0.921875 0.125q-0.8125 0 -1.21875 -0.484375q-0.40625 -0.484375 -0.40625 -1.390625l0 -4.359375l-1.28125 0l0 -0.9375l1.28125 0l0 -1.703125l1.203125 0zm7.07251 8.75q-0.109375 -0.203125 -0.171875 -0.734375q-0.84375 0.859375 -2.015625 0.859375q-1.03125 0 -1.703125 -0.578125q-0.671875 -0.59375 -0.671875 -1.5q0 -1.09375 0.828125 -1.703125q0.84375 -0.609375 2.359375 -0.609375l1.171875 0l0 -0.5625q0 -0.625 -0.375 -1.0q-0.375 -0.375 -1.109375 -0.375q-0.640625 0 -1.078125 0.328125q-0.4375 0.328125 -0.4375 0.78125l-1.203125 0q0 -0.515625 0.359375 -1.0q0.375 -0.5 1.015625 -0.78125q0.65625 -0.296875 1.421875 -0.296875q1.21875 0 1.90625 0.609375q0.6875 0.609375 0.71875 1.671875l0 3.25q0 0.96875 0.234375 1.53125l0 0.109375l-1.25 0zm-2.0 -0.921875q0.5625 0 1.0625 -0.28125q0.515625 -0.296875 0.734375 -0.765625l0 -1.453125l-0.9375 0q-2.21875 0 -2.21875 1.296875q0 0.5625 0.375 0.890625q0.390625 0.3125 0.984375 0.3125zm4.6091614 -2.65625q0 -1.625 0.765625 -2.609375q0.765625 -0.984375 2.0 -0.984375q1.25 0 1.96875 0.84375l0 -3.671875l1.203125 0l0 10.0l-1.109375 0l-0.0625 -0.75q-0.71875 0.875 -2.0 0.875q-1.234375 0 -2.0 -1.0q-0.765625 -1.0 -0.765625 -2.609375l0 -0.09375zm1.203125 0.140625q0 1.1875 0.484375 1.875q0.5 0.671875 1.375 0.671875q1.140625 0 1.671875 -1.03125l0 -3.234375q-0.546875 -1.0 -1.65625 -1.0q-0.890625 0 -1.390625 0.6875q-0.484375 0.6875 -0.484375 2.03125zm10.954102 3.4375q-0.109375 -0.203125 -0.171875 -0.734375q-0.84375 0.859375 -2.015625 0.859375q-1.03125 0 -1.703125 -0.578125q-0.671875 -0.59375 -0.671875 -1.5q0 -1.09375 0.828125 -1.703125q0.84375 -0.609375 2.359375 -0.609375l1.171875 0l0 -0.5625q0 -0.625 -0.375 -1.0q-0.375 -0.375 -1.109375 -0.375q-0.640625 0 -1.078125 0.328125q-0.4375 0.328125 -0.4375 0.78125l-1.203125 0q0 -0.515625 0.359375 -1.0q0.375 -0.5 1.015625 -0.78125q0.65625 -0.296875 1.421875 -0.296875q1.21875 0 1.90625 0.609375q0.6875 0.609375 0.71875 1.671875l0 3.25q0 0.96875 0.234375 1.53125l0 0.109375l-1.25 0zm-2.0 -0.921875q0.5625 0 1.0625 -0.28125q0.515625 -0.296875 0.734375 -0.765625l0 -1.453125l-0.9375 0q-2.21875 0 -2.21875 1.296875q0 0.5625 0.375 0.890625q0.390625 0.3125 0.984375 0.3125zm4.609131 -2.65625q0 -1.625 0.765625 -2.609375q0.7656555 -0.984375 2.0000305 -0.984375q1.25 0 1.96875 0.84375l0 -3.671875l1.203125 0l0 10.0l-1.109375 0l-0.0625 -0.75q-0.71875 0.875 -2.0 0.875q-1.234375 0 -2.0000305 -1.0q-0.765625 -1.0 -0.765625 -2.609375l0 -0.09375zm1.2031555 0.140625q0 1.1875 0.484375 1.875q0.5 0.671875 1.375 0.671875q1.140625 0 1.671875 -1.03125l0 -3.234375q-0.546875 -1.0 -1.65625 -1.0q-0.890625 0 -1.390625 0.6875q-0.484375 0.6875 -0.484375 2.03125zm6.2822266 -0.140625q0 -1.046875 0.40625 -1.875q0.40625 -0.828125 1.125 -1.265625q0.734375 -0.453125 1.65625 -0.453125q1.4375 0 2.328125 1.0q0.890625 0.984375 0.890625 2.640625l0 0.09375q0 1.015625 -0.390625 1.84375q-0.390625 0.8125 -1.125 1.265625q-0.734375 0.453125 -1.6875 0.453125q-1.421875 0 -2.3125 -0.984375q-0.890625 -1.0 -0.890625 -2.640625l0 -0.078125zm1.203125 0.140625q0 1.171875 0.546875 1.875q0.546875 0.703125 1.453125 0.703125q0.921875 0 1.453125 -0.71875q0.546875 -0.71875 0.546875 -2.0q0 -1.171875 -0.546875 -1.890625q-0.546875 -0.71875 -1.46875 -0.71875q-0.890625 0 -1.4375 0.71875q-0.546875 0.703125 -0.546875 2.03125zm10.819946 1.5625q0 -0.484375 -0.375 -0.75q-0.359375 -0.265625 -1.28125 -0.453125q-0.90625 -0.203125 -1.453125 -0.46875q-0.53125 -0.28125 -0.796875 -0.65625q-0.25 -0.390625 -0.25 -0.90625q0 -0.859375 0.734375 -1.453125q0.734375 -0.609375 1.875 -0.609375q1.1875 0 1.9375 0.625q0.75 0.609375 0.75 1.578125l-1.21875 0q0 -0.5 -0.421875 -0.859375q-0.421875 -0.359375 -1.046875 -0.359375q-0.65625 0 -1.03125 0.296875q-0.375 0.28125 -0.375 0.75q0 0.421875 0.34375 0.65625q0.34375 0.21875 1.25 0.421875q0.90625 0.203125 1.453125 0.484375q0.5625 0.265625 0.828125 0.671875q0.28125 0.390625 0.28125 0.953125q0 0.9375 -0.765625 1.515625q-0.75 0.5625 -1.953125 0.5625q-0.84375 0 -1.5 -0.296875q-0.640625 -0.296875 -1.015625 -0.828125q-0.359375 -0.546875 -0.359375 -1.171875l1.203125 0q0.03125 0.609375 0.484375 0.96875q0.453125 0.34375 1.1875 0.34375q0.6875 0 1.09375 -0.265625q0.421875 -0.28125 0.421875 -0.75zm10.421814 1.875q-0.109375 -0.203125 -0.171875 -0.734375q-0.84375 0.859375 -2.015625 0.859375q-1.03125 0 -1.703125 -0.578125q-0.671875 -0.59375 -0.671875 -1.5q0 -1.09375 0.828125 -1.703125q0.84375 -0.609375 2.359375 -0.609375l1.171875 0l0 -0.5625q0 -0.625 -0.375 -1.0q-0.375 -0.375 -1.109375 -0.375q-0.640625 0 -1.078125 0.328125q-0.4375 0.328125 -0.4375 0.78125l-1.203125 0q0 -0.515625 0.359375 -1.0q0.375 -0.5 1.015625 -0.78125q0.65625 -0.296875 1.421875 -0.296875q1.21875 0 1.90625 0.609375q0.6875 0.609375 0.71875 1.671875l0 3.25q0 0.96875 0.234375 1.53125l0 0.109375l-1.25 0zm-2.0 -0.921875q0.5625 0 1.0625 -0.28125q0.515625 -0.296875 0.734375 -0.765625l0 -1.453125l-0.9375 0q-2.21875 0 -2.21875 1.296875q0 0.5625 0.375 0.890625q0.390625 0.3125 0.984375 0.3125zm6.031006 -6.125l0.046875 0.890625q0.796875 -1.015625 2.109375 -1.015625q2.234375 0 2.25 2.515625l0 4.65625l-1.203125 0l0 -4.65625q-0.015625 -0.765625 -0.359375 -1.125q-0.328125 -0.375 -1.0625 -0.375q-0.578125 0 -1.03125 0.3125q-0.4375 0.3125 -0.6875 0.828125l0 5.015625l-1.203125 0l0 -7.046875l1.140625 0zm5.932007 3.46875q0 -1.625 0.765625 -2.609375q0.765625 -0.984375 2.0 -0.984375q1.25 0 1.96875 0.84375l0 -3.671875l1.203125 0l0 10.0l-1.109375 0l-0.0625 -0.75q-0.71875 0.875 -2.0 0.875q-1.234375 0 -2.0 -1.0q-0.765625 -1.0 -0.765625 -2.609375l0 -0.09375zm1.203125 0.140625q0 1.1875 0.484375 1.875q0.5 0.671875 1.375 0.671875q1.140625 0 1.671875 -1.03125l0 -3.234375q-0.546875 -1.0 -1.65625 -1.0q-0.890625 0 -1.390625 0.6875q-0.484375 0.6875 -0.484375 2.03125zm12.816101 3.5625q-1.421875 0 -2.328125 -0.9375q-0.890625 -0.9375 -0.890625 -2.515625l0 -0.21875q0 -1.046875 0.390625 -1.859375q0.40625 -0.828125 1.125 -1.296875q0.71875 -0.46875 1.5625 -0.46875q1.375 0 2.125 0.90625q0.765625 0.90625 0.765625 2.59375l0 0.5l-4.765625 0q0.015625 1.03125 0.59375 1.671875q0.59375 0.640625 1.484375 0.640625q0.640625 0 1.078125 -0.25q0.453125 -0.265625 0.78125 -0.6875l0.734375 0.5625q-0.875 1.359375 -2.65625 1.359375zm-0.140625 -6.3125q-0.734375 0 -1.234375 0.53125q-0.484375 0.53125 -0.609375 1.484375l3.53125 0l0 -0.078125q-0.046875 -0.921875 -0.5 -1.421875q-0.4375 -0.515625 -1.1875 -0.515625zm5.920471 -2.5625l0 1.703125l1.3125 0l0 0.9375l-1.3125 0l0 4.359375q0 0.421875 0.171875 0.640625q0.171875 0.21875 0.59375 0.21875q0.21875 0 0.578125 -0.078125l0 0.96875q-0.46875 0.125 -0.921875 0.125q-0.8125 0 -1.21875 -0.484375q-0.40625 -0.484375 -0.40625 -1.390625l0 -4.359375l-1.28125 0l0 -0.9375l1.28125 0l0 -1.703125l1.203125 0zm5.54126 7.890625q0.640625 0 1.125 -0.390625q0.484375 -0.390625 0.53125 -0.96875l1.140625 0q-0.03125 0.609375 -0.421875 1.15625q-0.375 0.546875 -1.015625 0.875q-0.640625 0.3125 -1.359375 0.3125q-1.4375 0 -2.296875 -0.953125q-0.84375 -0.96875 -0.84375 -2.625l0 -0.203125q0 -1.03125 0.375 -1.828125q0.390625 -0.796875 1.09375 -1.234375q0.703125 -0.453125 1.671875 -0.453125q1.171875 0 1.953125 0.71875q0.796875 0.703125 0.84375 1.828125l-1.140625 0q-0.046875 -0.671875 -0.515625 -1.109375q-0.46875 -0.453125 -1.140625 -0.453125q-0.921875 0 -1.4375 0.671875q-0.5 0.65625 -0.5 1.90625l0 0.21875q0 1.21875 0.5 1.875q0.515625 0.65625 1.4375 0.65625zm6.9295654 -2.921875q0 1.453125 -0.390625 2.78125q-0.375 1.328125 -1.15625 2.453125q-0.78125 1.125 -1.640625 1.609375l-0.25 -0.734375q1.0 -0.765625 1.609375 -2.375q0.609375 -1.625 0.625 -3.609375l0 -0.203125q0 -1.359375 -0.296875 -2.53125q-0.28125 -1.1875 -0.796875 -2.109375q-0.5 -0.9375 -1.140625 -1.453125l0.25 -0.734375q0.859375 0.46875 1.640625 1.59375q0.78125 1.109375 1.15625 2.453125q0.390625 1.328125 0.390625 2.859375z"
       fill-rule="nonzero"
       id="path42" />
    <path
       fill="#000000"
       fill-opacity="0.0"
       d="m297.7848 204.50394l104.22046 0.1889801"
       fill-rule="evenodd"
       id="path44" />
    <path
       stroke="#595959"
       stroke-width="1.0"
       stroke-linejoin="round"
       stroke-linecap="butt"
       d="m297.7848 204.50394l98.22046 0.17808533"
       fill-rule="evenodd"
       id="path46" />
    <path
       fill="#595959"
       stroke="#595959"
       stroke-width="1.0"
       stroke-linecap="butt"
       d="m396.00226 206.33377l4.5410767 -1.6435089l-4.535095 -1.6599579z"
       fill-rule="evenodd"
       id="path48" />
    <path
       fill="#f3f3f3"
       d="m228.93439 195.89764l51.637787 0l0 51.637787l-51.637787 0z"
       fill-rule="evenodd"
       id="path50" />
    <path
       fill="#c2c2c2"
       d="m280.57217 195.89764l17.212616 -17.2126l0 51.637787l-17.212616 17.2126z"
       fill-rule="evenodd"
       id="path52" />
    <path
       fill="#f5f5f5"
       d="m228.93439 195.89764l17.2126 -17.2126l51.637802 0l-17.212616 17.2126z"
       fill-rule="evenodd"
       id="path54" />
    <path
       fill="#000000"
       fill-opacity="0.0"
       d="m228.93439 195.89764l17.2126 -17.2126l51.637802 0l0 51.637787l-17.212616 17.2126l-51.637787 0zm0 0l51.637787 0l17.212616 -17.2126m-17.212616 17.2126l0 51.637787"
       fill-rule="evenodd"
       id="path56" />
    <path
       stroke="#595959"
       stroke-width="1.0"
       stroke-linejoin="round"
       stroke-linecap="butt"
       stroke-dasharray="4.0,3.0"
       d="m228.93439 195.89764l17.2126 -17.2126l51.637802 0l0 51.637787l-17.212616 17.2126l-51.637787 0zm0 0l51.637787 0l17.212616 -17.2126m-17.212616 17.2126l0 51.637787"
       fill-rule="evenodd"
       id="path58" />
    <path
       fill="#000000"
       fill-opacity="0.0"
       d="m132.57217 245.06163l244.91339 0l0 46.740158l-244.91339 0z"
       fill-rule="evenodd"
       id="path60" />
    <path
       fill="#000000"
       d="m194.35123 260.0836l-1.515625 1.359375l-0.609375 3.46875l-1.34375 0l1.8125 -10.421875l1.34375 0l-0.890625 5.078125l5.3125 -5.078125l1.734375 0l-4.84375 4.671875l3.234375 5.75l-1.484375 0l-2.75 -4.828125zm7.7227783 -2.921875l-0.1875 0.984375q1.046875 -1.15625 2.375 -1.125q1.09375 0.03125 1.609375 0.765625q0.53125 0.734375 0.390625 2.046875l-0.84375 5.078125l-1.296875 0l0.859375 -5.09375q0.03125 -0.359375 0 -0.65625q-0.125 -1.0 -1.1875 -1.015625q-1.15625 -0.03125 -2.046875 1.234375l-0.953125 5.53125l-1.296875 0l1.34375 -7.75l1.234375 0zm9.6336975 -0.140625q0.984375 0.015625 1.671875 0.53125q0.703125 0.515625 1.03125 1.421875q0.328125 0.90625 0.21875 1.984375l-0.015625 0.15625q-0.125 1.125 -0.671875 2.046875q-0.53125 0.90625 -1.390625 1.421875q-0.84375 0.5 -1.859375 0.46875q-0.96875 -0.015625 -1.671875 -0.53125q-0.6875 -0.515625 -1.015625 -1.390625q-0.3125 -0.890625 -0.21875 -1.96875q0.09375 -1.1875 0.640625 -2.140625q0.546875 -0.96875 1.40625 -1.5q0.859375 -0.53125 1.875 -0.5zm-2.625 4.15625q-0.046875 0.453125 0 0.9375q0.0625 0.84375 0.5 1.34375q0.4375 0.5 1.15625 0.515625q0.640625 0.03125 1.1875 -0.3125q0.546875 -0.34375 0.921875 -1.03125q0.375 -0.6875 0.484375 -1.515625q0.046875 -0.65625 0.015625 -1.109375q-0.09375 -0.875 -0.53125 -1.375q-0.421875 -0.5 -1.15625 -0.53125q-1.0 -0.015625 -1.703125 0.796875q-0.703125 0.8125 -0.859375 2.109375l-0.015625 0.171875zm13.460983 1.90625l2.46875 -5.921875l1.34375 0l-3.53125 7.75l-1.0625 0l-0.796875 -5.859375l-2.78125 5.859375l-1.0625 0l-0.828125 -7.75l1.234375 0l0.46875 5.78125l2.75 -5.78125l1.046875 0l0.75 5.921875zm5.209152 1.828125l-1.28125 0l1.890625 -11.0l1.296875 0l-1.90625 11.0zm5.47406 0.140625q-1.453125 -0.03125 -2.265625 -1.0625q-0.8125 -1.03125 -0.6875 -2.65625l0.03125 -0.3125q0.125 -1.140625 0.6875 -2.09375q0.5625 -0.953125 1.359375 -1.4375q0.8125 -0.484375 1.75 -0.46875q1.203125 0.03125 1.875 0.796875q0.6875 0.765625 0.75 2.078125q0.015625 0.46875 -0.03125 0.921875l-0.078125 0.59375l-5.0625 0q-0.125 1.0625 0.34375 1.796875q0.484375 0.734375 1.421875 0.765625q1.15625 0.03125 2.125 -1.03125l0.75 0.625q-0.5 0.703125 -1.265625 1.109375q-0.765625 0.390625 -1.703125 0.375zm0.8125 -6.953125q-0.796875 -0.015625 -1.40625 0.546875q-0.59375 0.5625 -0.9375 1.6875l3.765625 0l0.03125 -0.109375q0.109375 -0.90625 -0.296875 -1.5q-0.40625 -0.59375 -1.15625 -0.625zm3.8031921 2.921875q0.140625 -1.171875 0.640625 -2.125q0.515625 -0.953125 1.25 -1.421875q0.75 -0.484375 1.65625 -0.453125q1.296875 0.03125 1.984375 0.9375l0.75 -4.046875l1.296875 0l-1.90625 11.0l-1.1875 0l0.140625 -0.828125q-0.921875 1.0 -2.265625 0.96875q-1.078125 -0.03125 -1.71875 -0.84375q-0.625 -0.8125 -0.671875 -2.171875q-0.03125 -0.421875 0.03125 -1.015625zm1.25 0.75q-0.03125 1.015625 0.359375 1.59375q0.390625 0.5625 1.125 0.578125q1.125 0.046875 2.0 -1.140625l0.625 -3.578125q-0.4375 -1.046875 -1.5625 -1.078125q-0.765625 -0.03125 -1.359375 0.453125q-0.578125 0.484375 -0.890625 1.359375q-0.296875 0.859375 -0.296875 1.8125zm6.8367004 -0.75q0.171875 -1.265625 0.6875 -2.1875q0.515625 -0.9375 1.25 -1.390625q0.734375 -0.453125 1.609375 -0.421875q1.34375 0.03125 2.03125 1.015625l0.25 -0.875l1.1875 0l-1.28125 7.578125q-0.203125 1.484375 -1.203125 2.375q-1.0 0.890625 -2.453125 0.859375q-0.796875 -0.015625 -1.515625 -0.375q-0.71875 -0.359375 -1.125 -0.984375l0.734375 -0.796875q0.703125 1.046875 1.859375 1.0625q0.921875 0.03125 1.5625 -0.515625q0.640625 -0.53125 0.84375 -1.53125l0.140625 -0.6875q-0.9375 0.9375 -2.203125 0.90625q-0.734375 -0.015625 -1.265625 -0.375q-0.53125 -0.375 -0.828125 -1.078125q-0.28125 -0.703125 -0.3125 -1.5625q-0.015625 -0.421875 0.03125 -1.015625zm1.265625 0.734375q-0.03125 1.03125 0.34375 1.59375q0.375 0.5625 1.140625 0.59375q1.15625 0.03125 2.0 -1.140625l0.609375 -3.5625q-0.4375 -1.0625 -1.5625 -1.09375q-1.046875 -0.03125 -1.734375 0.859375q-0.671875 0.875 -0.78125 2.390625l-0.015625 0.359375zm9.769653 3.296875q-1.4531097 -0.03125 -2.2656097 -1.0625q-0.8125 -1.03125 -0.6875 -2.65625l0.03125 -0.3125q0.125 -1.140625 0.6875 -2.09375q0.5625 -0.953125 1.3593597 -1.4375q0.8125 -0.484375 1.75 -0.46875q1.203125 0.03125 1.875 0.796875q0.6875 0.765625 0.75 2.078125q0.015625 0.46875 -0.03125 0.921875l-0.078125 0.59375l-5.0624847 0q-0.125 1.0625 0.34375 1.796875q0.48435974 0.734375 1.4218597 0.765625q1.15625 0.03125 2.125 -1.03125l0.75 0.625q-0.5 0.703125 -1.265625 1.109375q-0.765625 0.390625 -1.703125 0.375zm0.8125 -6.953125q-0.796875 -0.015625 -1.40625 0.546875q-0.59373474 0.5625 -0.93748474 1.6875l3.7656097 0l0.03125 -0.109375q0.109375 -0.90625 -0.296875 -1.5q-0.40625 -0.59375 -1.15625 -0.625zm9.270691 2.734375l-0.703125 4.078125l-1.34375 0l1.8125 -10.421875l3.46875 0.015625q1.625 0 2.484375 0.859375q0.875 0.84375 0.765625 2.265625q-0.140625 1.484375 -1.203125 2.34375q-1.0625 0.859375 -2.796875 0.859375l-2.484375 0zm0.203125 -1.125l2.3125 0q1.09375 0 1.796875 -0.546875q0.703125 -0.546875 0.828125 -1.53125q0.109375 -0.875 -0.375 -1.421875q-0.46875 -0.546875 -1.390625 -0.578125l-2.46875 0l-0.703125 4.078125zm11.240967 5.203125q-0.046875 -0.203125 -0.046875 -0.40625l0.03125 -0.40625q-1.078125 0.984375 -2.265625 0.953125q-1.03125 -0.015625 -1.671875 -0.640625q-0.640625 -0.640625 -0.578125 -1.59375q0.078125 -1.234375 1.078125 -1.921875q1.0 -0.6875 2.640625 -0.6875l1.359375 0.015625l0.078125 -0.625q0.078125 -0.6875 -0.265625 -1.09375q-0.34375 -0.40625 -1.015625 -0.421875q-0.671875 -0.015625 -1.1875 0.328125q-0.5 0.34375 -0.625 0.890625l-1.296875 0.015625q0.0625 -0.6875 0.53125 -1.203125q0.46875 -0.53125 1.1875 -0.8125q0.734375 -0.296875 1.515625 -0.28125q1.203125 0.03125 1.875 0.734375q0.6875 0.703125 0.578125 1.875l-0.640625 3.828125l-0.03125 0.546875q-0.015625 0.390625 0.09375 0.78125l-0.015625 0.125l-1.328125 0zm-2.03125 -1.0q0.625 0.015625 1.171875 -0.296875q0.5625 -0.3125 0.96875 -0.859375l0.28125 -1.59375l-0.984375 -0.015625q-1.21875 0 -1.875 0.390625q-0.65625 0.390625 -0.734375 1.09375q-0.0625 0.546875 0.25 0.90625q0.3125 0.359375 0.921875 0.375zm8.385742 0.0625q0.6875 0.015625 1.234375 -0.390625q0.5625 -0.421875 0.734375 -1.109375l1.234375 0q-0.109375 0.734375 -0.59375 1.328125q-0.46875 0.59375 -1.203125 0.9375q-0.71875 0.34375 -1.46875 0.3125q-0.96875 -0.015625 -1.640625 -0.5q-0.671875 -0.5 -0.984375 -1.375q-0.3125 -0.875 -0.21875 -1.96875l0.046875 -0.359375q0.125 -1.109375 0.640625 -1.984375q0.515625 -0.890625 1.34375 -1.375q0.84375 -0.5 1.84375 -0.46875q1.21875 0.03125 1.9375 0.828125q0.734375 0.78125 0.734375 1.984375l-1.203125 0q-0.015625 -0.765625 -0.421875 -1.234375q-0.40625 -0.46875 -1.109375 -0.5q-1.0 -0.015625 -1.671875 0.765625q-0.671875 0.765625 -0.84375 2.15625l-0.015625 0.1875q-0.046875 0.453125 -0.015625 0.9375q0.046875 0.84375 0.46875 1.328125q0.421875 0.484375 1.171875 0.5zm7.0141907 -2.640625l-1.015625 0.921875l-0.453125 2.65625l-1.296875 0l1.90625 -11.0l1.296875 0l-1.140625 6.578125l0.78125 -0.796875l2.75 -2.53125l1.6875 0l-3.5625 3.3125l2.453125 4.4375l-1.421875 0l-1.984375 -3.578125zm9.23114 3.578125q-0.046875 -0.203125 -0.046875 -0.40625l0.03125 -0.40625q-1.078125 0.984375 -2.265625 0.953125q-1.03125 -0.015625 -1.671875 -0.640625q-0.640625 -0.640625 -0.578125 -1.59375q0.078125 -1.234375 1.078125 -1.921875q1.0 -0.6875 2.640625 -0.6875l1.359375 0.015625l0.078125 -0.625q0.078125 -0.6875 -0.265625 -1.09375q-0.34375 -0.40625 -1.015625 -0.421875q-0.671875 -0.015625 -1.1875 0.328125q-0.5 0.34375 -0.625 0.890625l-1.296875 0.015625q0.0625 -0.6875 0.53125 -1.203125q0.46875 -0.53125 1.1875 -0.8125q0.734375 -0.296875 1.515625 -0.28125q1.203125 0.03125 1.875 0.734375q0.6875 0.703125 0.578125 1.875l-0.640625 3.828125l-0.03125 0.546875q-0.015625 0.390625 0.09375 0.78125l-0.015625 0.125l-1.328125 0zm-2.03125 -1.0q0.625 0.015625 1.171875 -0.296875q0.5625 -0.3125 0.96875 -0.859375l0.28125 -1.59375l-0.984375 -0.015625q-1.21875 0 -1.875 0.390625q-0.65625 0.390625 -0.734375 1.09375q-0.0625 0.546875 0.25 0.90625q0.3125 0.359375 0.921875 0.375zm5.479492 -2.890625q0.171875 -1.265625 0.6875 -2.1875q0.515625 -0.9375 1.25 -1.390625q0.734375 -0.453125 1.609375 -0.421875q1.34375 0.03125 2.03125 1.015625l0.25 -0.875l1.1875 0l-1.28125 7.578125q-0.203125 1.484375 -1.203125 2.375q-1.0 0.890625 -2.453125 0.859375q-0.796875 -0.015625 -1.515625 -0.375q-0.71875 -0.359375 -1.125 -0.984375l0.734375 -0.796875q0.703125 1.046875 1.859375 1.0625q0.921875 0.03125 1.5625 -0.515625q0.640625 -0.53125 0.84375 -1.53125l0.140625 -0.6875q-0.9375 0.9375 -2.203125 0.90625q-0.734375 -0.015625 -1.265625 -0.375q-0.53125 -0.375 -0.828125 -1.078125q-0.28125 -0.703125 -0.3125 -1.5625q-0.015625 -0.421875 0.03125 -1.015625zm1.265625 0.734375q-0.03125 1.03125 0.34375 1.59375q0.375 0.5625 1.140625 0.59375q1.15625 0.03125 2.0 -1.140625l0.609375 -3.5625q-0.4375 -1.0625 -1.5625 -1.09375q-1.046875 -0.03125 -1.734375 0.859375q-0.671875 0.875 -0.78125 2.390625l-0.015625 0.359375zm9.769653 3.296875q-1.453125 -0.03125 -2.265625 -1.0625q-0.8125 -1.03125 -0.6875 -2.65625l0.03125 -0.3125q0.125 -1.140625 0.6875 -2.09375q0.5625 -0.953125 1.359375 -1.4375q0.8125 -0.484375 1.75 -0.46875q1.203125 0.03125 1.875 0.796875q0.6875 0.765625 0.75 2.078125q0.015625 0.46875 -0.03125 0.921875l-0.078125 0.59375l-5.0625 0q-0.125 1.0625 0.34375 1.796875q0.484375 0.734375 1.421875 0.765625q1.15625 0.03125 2.125 -1.03125l0.75 0.625q-0.5 0.703125 -1.265625 1.109375q-0.765625 0.390625 -1.703125 0.375zm0.8125 -6.953125q-0.796875 -0.015625 -1.40625 0.546875q-0.59375 0.5625 -0.9375 1.6875l3.765625 0l0.03125 -0.109375q0.109375 -0.90625 -0.296875 -1.5q-0.40625 -0.59375 -1.15625 -0.625z"
       fill-rule="nonzero"
       id="path62" />
    <path
       fill="#000000"
       d="m234.5702 278.27734q0 -1.609375 0.421875 -3.09375q0.4375 -1.5 1.296875 -2.703125q0.859375 -1.21875 1.78125 -1.734375l0.28125 0.875q-1.046875 0.8125 -1.71875 2.453125q-0.671875 1.640625 -0.734375 3.6875l0 0.609375q0 2.765625 1.0 4.796875q0.609375 1.21875 1.453125 1.90625l-0.28125 0.796875q-0.953125 -0.53125 -1.8125 -1.765625q-1.6875 -2.4375 -1.6875 -5.828125z"
       fill-rule="nonzero"
       id="path64" />
    <path
       fill="#000000"
       d="m239.56404 282.51172l0 -10.421875l3.203125 0q1.375 0 2.453125 0.625q1.078125 0.609375 1.6875 1.75q0.609375 1.140625 0.609375 2.59375l0 0.484375q0 1.453125 -0.59375 2.59375q-0.59375 1.125 -1.6875 1.75q-1.078125 0.625 -2.453125 0.625l-3.21875 0zm2.140625 -8.6875l0 6.96875l1.03125 0q1.265625 0 1.921875 -0.828125q0.671875 -0.828125 0.6875 -2.359375l0 -0.546875q0 -1.59375 -0.65625 -2.40625q-0.65625 -0.828125 -1.921875 -0.828125l-1.0625 0zm11.587631 2.890625q-0.421875 -0.0625 -0.734375 -0.0625q-1.171875 0 -1.546875 0.796875l0 5.0625l-2.0625 0l0 -7.75l1.953125 0l0.0625 0.9375q0.609375 -1.078125 1.71875 -1.078125q0.34375 0 0.640625 0.09375l-0.03125 2.0zm5.2716064 5.796875q-0.140625 -0.28125 -0.203125 -0.6875q-0.75 0.828125 -1.953125 0.828125q-1.1406403 0 -1.8906403 -0.65625q-0.75 -0.65625 -0.75 -1.65625q0 -1.234375 0.90625 -1.890625q0.921875 -0.65625 2.6406403 -0.671875l0.953125 0l0 -0.4375q0 -0.53125 -0.28125 -0.859375q-0.265625 -0.328125 -0.859375 -0.328125q-0.515625 0 -0.8125 0.25q-0.296875 0.25 -0.296875 0.6875l-2.0781403 0q0 -0.671875 0.40625 -1.234375q0.421875 -0.578125 1.171875 -0.90625q0.76564026 -0.328125 1.7187653 -0.328125q1.421875 0 2.265625 0.71875q0.84375 0.71875 0.84375 2.03125l0 3.34375q0.015625 1.109375 0.3125 1.671875l0 0.125l-2.09375 0zm-1.703125 -1.4375q0.453125 0 0.828125 -0.203125q0.390625 -0.203125 0.578125 -0.546875l0 -1.328125l-0.765625 0q-1.5625153 0 -1.6562653 1.0625l0 0.125q0 0.390625 0.26564026 0.640625q0.265625 0.25 0.75 0.25zm5.6389465 1.4375l0 -6.21875l-1.15625 0l0 -1.53125l1.15625 0l0 -0.65625q0 -1.296875 0.75 -2.015625q0.75 -0.71875 2.09375 -0.71875q0.421875 0 1.046875 0.140625l-0.015625 1.609375q-0.265625 -0.0625 -0.640625 -0.0625q-1.15625 0 -1.15625 1.09375l0 0.609375l1.53125 0l0 1.53125l-1.53125 0l0 6.21875l-2.078125 0zm7.159027 -9.640625l0 1.890625l1.328125 0l0 1.53125l-1.328125 0l0 3.859375q0 0.421875 0.15625 0.609375q0.171875 0.1875 0.640625 0.1875q0.34375 0 0.609375 -0.046875l0 1.5625q-0.609375 0.1875 -1.25 0.1875q-2.171875 0 -2.21875 -2.1875l0 -4.171875l-1.125 0l0 -1.53125l1.125 0l0 -1.890625l2.0625 0z"
       fill-rule="nonzero"
       id="path66" />
    <path
       fill="#000000"
       d="m275.40784 278.35547q0 1.59375 -0.421875 3.0625q-0.421875 1.453125 -1.28125 2.6875q-0.859375 1.25 -1.8125 1.765625l-0.28125 -0.796875q1.109375 -0.859375 1.78125 -2.625q0.671875 -1.78125 0.6875 -3.953125l0 -0.234375q0 -1.5 -0.328125 -2.78125q-0.3125 -1.296875 -0.875 -2.3125q-0.5625 -1.03125 -1.265625 -1.609375l0.28125 -0.8125q0.953125 0.53125 1.796875 1.765625q0.859375 1.21875 1.28125 2.6875q0.4375 1.46875 0.4375 3.15625z"
       fill-rule="nonzero"
       id="path68" />
    <path
       fill="#000000"
       fill-opacity="0.0"
       d="m255.02887 367.9475l0 -76.15747"
       fill-rule="evenodd"
       id="path70" />
    <path
       stroke="#595959"
       stroke-width="1.0"
       stroke-linejoin="round"
       stroke-linecap="butt"
       d="m255.02887 367.9475l0 -70.15747"
       fill-rule="evenodd"
       id="path72" />
    <path
       fill="#595959"
       stroke="#595959"
       stroke-width="1.0"
       stroke-linecap="butt"
       d="m256.6806 297.79004l-1.6517334 -4.5381165l-1.6517334 4.5381165z"
       fill-rule="evenodd"
       id="path74" />
    <path
       fill="#f3f3f3"
       d="m463.2257 377.83728l51.637817 0l0 51.637787l-51.637817 0z"
       fill-rule="evenodd"
       id="path76" />
    <path
       fill="#c2c2c2"
       d="m514.8635 377.83728l17.212585 -17.212616l0 51.637817l-17.212585 17.212585z"
       fill-rule="evenodd"
       id="path78" />
    <path
       fill="#f5f5f5"
       d="m463.2257 377.83728l17.212616 -17.212616l51.637787 0l-17.212585 17.212616z"
       fill-rule="evenodd"
       id="path80" />
    <path
       fill="#000000"
       fill-opacity="0.0"
       d="m463.2257 377.83728l17.212616 -17.212616l51.637787 0l0 51.637817l-17.212585 17.212585l-51.637817 0zm0 0l51.637817 0l17.212585 -17.212616m-17.212585 17.212616l0 51.637787"
       fill-rule="evenodd"
       id="path82" />
    <path
       stroke="#595959"
       stroke-width="1.0"
       stroke-linejoin="round"
       stroke-linecap="butt"
       stroke-dasharray="4.0,3.0"
       d="m463.2257 377.83728l17.212616 -17.212616l51.637787 0l0 51.637817l-17.212585 17.212585l-51.637817 0zm0 0l51.637817 0l17.212585 -17.212616m-17.212585 17.212616l0 51.637787"
       fill-rule="evenodd"
       id="path84" />
    <path
       fill="#000000"
       fill-opacity="0.0"
       d="m403.22174 428.18372l172.25195 0l0 46.740173l-172.25195 0z"
       fill-rule="evenodd"
       id="path86" />
    <path
       fill="#000000"
       d="m428.67007 443.2057l-1.515625 1.359375l-0.609375 3.46875l-1.34375 0l1.8125 -10.421875l1.34375 0l-0.890625 5.078125l5.3125 -5.078125l1.734375 0l-4.84375 4.671875l3.234375 5.75l-1.484375 0l-2.75 -4.828125zm7.7227783 -2.921875l-0.1875 0.984375q1.046875 -1.15625 2.375 -1.125q1.09375 0.03125 1.609375 0.765625q0.53125 0.734375 0.390625 2.046875l-0.84375 5.078125l-1.296875 0l0.859375 -5.09375q0.03125 -0.359375 0 -0.65625q-0.125 -1.0 -1.1875 -1.015625q-1.15625 -0.03125 -2.046875 1.234375l-0.953125 5.53125l-1.296875 0l1.34375 -7.75l1.234375 0zm9.6336975 -0.140625q0.984375 0.015625 1.671875 0.53125q0.703125 0.515625 1.03125 1.421875q0.328125 0.90625 0.21875 1.984375l-0.015625 0.15625q-0.125 1.125 -0.671875 2.046875q-0.53125 0.90625 -1.390625 1.421875q-0.84375 0.5 -1.859375 0.46875q-0.96875 -0.015625 -1.671875 -0.53125q-0.6875 -0.515625 -1.015625 -1.390625q-0.3125 -0.890625 -0.21875 -1.96875q0.09375 -1.1875 0.640625 -2.140625q0.546875 -0.96875 1.40625 -1.5q0.859375 -0.53125 1.875 -0.5zm-2.625 4.15625q-0.046875 0.453125 0 0.9375q0.0625 0.84375 0.5 1.34375q0.4375 0.5 1.15625 0.515625q0.640625 0.03125 1.1875 -0.3125q0.546875 -0.34375 0.921875 -1.03125q0.375 -0.6875 0.484375 -1.515625q0.046875 -0.65625 0.015625 -1.109375q-0.09375 -0.875 -0.53125 -1.375q-0.421875 -0.5 -1.15625 -0.53125q-1.0 -0.015625 -1.703125 0.796875q-0.703125 0.8125 -0.859375 2.109375l-0.015625 0.171875zm13.460968 1.90625l2.46875 -5.921875l1.34375 0l-3.53125 7.75l-1.0625 0l-0.796875 -5.859375l-2.78125 5.859375l-1.0625 0l-0.828125 -7.75l1.234375 0l0.46875 5.78125l2.75 -5.78125l1.046875 0l0.75 5.921875zm5.2091675 1.828125l-1.28125 0l1.890625 -11.0l1.296875 0l-1.90625 11.0zm5.47406 0.140625q-1.453125 -0.03125 -2.265625 -1.0625q-0.8125 -1.03125 -0.6875 -2.65625l0.03125 -0.3125q0.125 -1.140625 0.6875 -2.09375q0.5625 -0.953125 1.359375 -1.4375q0.8125 -0.484375 1.75 -0.46875q1.203125 0.03125 1.875 0.796875q0.6875 0.765625 0.75 2.078125q0.015625 0.46875 -0.03125 0.921875l-0.078125 0.59375l-5.0625 0q-0.125 1.0625 0.34375 1.796875q0.484375 0.734375 1.421875 0.765625q1.15625 0.03125 2.125 -1.03125l0.75 0.625q-0.5 0.703125 -1.265625 1.109375q-0.765625 0.390625 -1.703125 0.375zm0.8125 -6.953125q-0.796875 -0.015625 -1.40625 0.546875q-0.59375 0.5625 -0.9375 1.6875l3.765625 0l0.03125 -0.109375q0.109375 -0.90625 -0.296875 -1.5q-0.40625 -0.59375 -1.15625 -0.625zm3.8031921 2.921875q0.140625 -1.171875 0.640625 -2.125q0.515625 -0.953125 1.25 -1.421875q0.75 -0.484375 1.65625 -0.453125q1.296875 0.03125 1.984375 0.9375l0.75 -4.046875l1.296875 0l-1.90625 11.0l-1.1875 0l0.140625 -0.828125q-0.921875 1.0 -2.265625 0.96875q-1.078125 -0.03125 -1.71875 -0.84375q-0.625 -0.8125 -0.671875 -2.171875q-0.03125 -0.421875 0.03125 -1.015625zm1.25 0.75q-0.03125 1.015625 0.359375 1.59375q0.390625 0.5625 1.125 0.578125q1.125 0.046875 2.0 -1.140625l0.625 -3.578125q-0.4375 -1.046875 -1.5625 -1.078125q-0.765625 -0.03125 -1.359375 0.453125q-0.578125 0.484375 -0.890625 1.359375q-0.296875 0.859375 -0.296875 1.8125zm6.8367004 -0.75q0.171875 -1.265625 0.6875 -2.1875q0.515625 -0.9375 1.25 -1.390625q0.734375 -0.453125 1.609375 -0.421875q1.34375 0.03125 2.03125 1.015625l0.25 -0.875l1.1875 0l-1.28125 7.578125q-0.203125 1.484375 -1.203125 2.375q-1.0 0.890625 -2.453125 0.859375q-0.796875 -0.015625 -1.515625 -0.375q-0.71875 -0.359375 -1.125 -0.984375l0.734375 -0.796875q0.703125 1.046875 1.859375 1.0625q0.921875 0.03125 1.5625 -0.515625q0.640625 -0.53125 0.84375 -1.53125l0.140625 -0.6875q-0.9375 0.9375 -2.203125 0.90625q-0.734375 -0.015625 -1.265625 -0.375q-0.53125 -0.375 -0.828125 -1.078125q-0.28125 -0.703125 -0.3125 -1.5625q-0.015625 -0.421875 0.03125 -1.015625zm1.265625 0.734375q-0.03125 1.03125 0.34375 1.59375q0.375 0.5625 1.140625 0.59375q1.15625 0.03125 2.0 -1.140625l0.609375 -3.5625q-0.4375 -1.0625 -1.5625 -1.09375q-1.046875 -0.03125 -1.734375 0.859375q-0.671875 0.875 -0.78125 2.390625l-0.015625 0.359375zm9.769653 3.296875q-1.453125 -0.03125 -2.265625 -1.0625q-0.8125 -1.03125 -0.6875 -2.65625l0.03125 -0.3125q0.125 -1.140625 0.6875 -2.09375q0.5625 -0.953125 1.359375 -1.4375q0.8125 -0.484375 1.75 -0.46875q1.203125 0.03125 1.875 0.796875q0.6875 0.765625 0.75 2.078125q0.015625 0.46875 -0.03125 0.921875l-0.078125 0.59375l-5.0625 0q-0.125 1.0625 0.34375 1.796875q0.484375 0.734375 1.421875 0.765625q1.15625 0.03125 2.125 -1.03125l0.75 0.625q-0.5 0.703125 -1.265625 1.109375q-0.765625 0.390625 -1.703125 0.375zm0.8125 -6.953125q-0.796875 -0.015625 -1.40625 0.546875q-0.59375 0.5625 -0.9375 1.6875l3.765625 0l0.03125 -0.109375q0.109375 -0.90625 -0.296875 -1.5q-0.40625 -0.59375 -1.15625 -0.625zm9.270691 2.734375l-0.703125 4.078125l-1.34375 0l1.8125 -10.421875l3.46875 0.015625q1.625 0 2.484375 0.859375q0.875 0.84375 0.765625 2.265625q-0.140625 1.484375 -1.203125 2.34375q-1.0625 0.859375 -2.796875 0.859375l-2.484375 0zm0.203125 -1.125l2.3125 0q1.09375 0 1.796875 -0.546875q0.703125 -0.546875 0.828125 -1.53125q0.109375 -0.875 -0.375 -1.421875q-0.46875 -0.546875 -1.390625 -0.578125l-2.46875 0l-0.703125 4.078125zm11.240997 5.203125q-0.046875 -0.203125 -0.046875 -0.40625l0.03125 -0.40625q-1.0781555 0.984375 -2.2656555 0.953125q-1.03125 -0.015625 -1.671875 -0.640625q-0.640625 -0.640625 -0.578125 -1.59375q0.078125 -1.234375 1.078125 -1.921875q1.0 -0.6875 2.640625 -0.6875l1.3594055 0.015625l0.078125 -0.625q0.078125 -0.6875 -0.265625 -1.09375q-0.34375 -0.40625 -1.015625 -0.421875q-0.6719055 -0.015625 -1.1875305 0.328125q-0.5 0.34375 -0.625 0.890625l-1.296875 0.015625q0.0625 -0.6875 0.53125 -1.203125q0.46875 -0.53125 1.1875 -0.8125q0.734375 -0.296875 1.5156555 -0.28125q1.203125 0.03125 1.875 0.734375q0.6875 0.703125 0.578125 1.875l-0.640625 3.828125l-0.03125 0.546875q-0.015625 0.390625 0.09375 0.78125l-0.015625 0.125l-1.328125 0zm-2.0312805 -1.0q0.625 0.015625 1.171875 -0.296875q0.5625305 -0.3125 0.9687805 -0.859375l0.28125 -1.59375l-0.984375 -0.015625q-1.2187805 0 -1.8750305 0.390625q-0.65625 0.390625 -0.734375 1.09375q-0.0625 0.546875 0.25 0.90625q0.3125 0.359375 0.921875 0.375zm8.385712 0.0625q0.6875 0.015625 1.234375 -0.390625q0.5625 -0.421875 0.734375 -1.109375l1.234375 0q-0.109375 0.734375 -0.59375 1.328125q-0.46875 0.59375 -1.203125 0.9375q-0.71875 0.34375 -1.46875 0.3125q-0.96875 -0.015625 -1.640625 -0.5q-0.671875 -0.5 -0.984375 -1.375q-0.3125 -0.875 -0.21875 -1.96875l0.046875 -0.359375q0.125 -1.109375 0.640625 -1.984375q0.515625 -0.890625 1.34375 -1.375q0.84375 -0.5 1.84375 -0.46875q1.21875 0.03125 1.9375 0.828125q0.734375 0.78125 0.734375 1.984375l-1.203125 0q-0.015625 -0.765625 -0.421875 -1.234375q-0.40625 -0.46875 -1.109375 -0.5q-1.0 -0.015625 -1.671875 0.765625q-0.671875 0.765625 -0.84375 2.15625l-0.015625 0.1875q-0.046875 0.453125 -0.015625 0.9375q0.046875 0.84375 0.46875 1.328125q0.421875 0.484375 1.171875 0.5zm7.014221 -2.640625l-1.015625 0.921875l-0.453125 2.65625l-1.296875 0l1.90625 -11.0l1.296875 0l-1.140625 6.578125l0.78125 -0.796875l2.75 -2.53125l1.6875 0l-3.5625 3.3125l2.453125 4.4375l-1.421875 0l-1.984375 -3.578125zm9.23114 3.578125q-0.046875 -0.203125 -0.046875 -0.40625l0.03125 -0.40625q-1.078125 0.984375 -2.265625 0.953125q-1.03125 -0.015625 -1.671875 -0.640625q-0.640625 -0.640625 -0.578125 -1.59375q0.078125 -1.234375 1.078125 -1.921875q1.0 -0.6875 2.640625 -0.6875l1.359375 0.015625l0.078125 -0.625q0.078125 -0.6875 -0.265625 -1.09375q-0.34375 -0.40625 -1.015625 -0.421875q-0.671875 -0.015625 -1.1875 0.328125q-0.5 0.34375 -0.625 0.890625l-1.296875 0.015625q0.0625 -0.6875 0.53125 -1.203125q0.46875 -0.53125 1.1875 -0.8125q0.734375 -0.296875 1.515625 -0.28125q1.203125 0.03125 1.875 0.734375q0.6875 0.703125 0.578125 1.875l-0.640625 3.828125l-0.03125 0.546875q-0.015625 0.390625 0.09375 0.78125l-0.015625 0.125l-1.328125 0zm-2.03125 -1.0q0.625 0.015625 1.171875 -0.296875q0.5625 -0.3125 0.96875 -0.859375l0.28125 -1.59375l-0.984375 -0.015625q-1.21875 0 -1.875 0.390625q-0.65625 0.390625 -0.734375 1.09375q-0.0625 0.546875 0.25 0.90625q0.3125 0.359375 0.921875 0.375zm5.479492 -2.890625q0.171875 -1.265625 0.6875 -2.1875q0.515625 -0.9375 1.25 -1.390625q0.734375 -0.453125 1.609375 -0.421875q1.34375 0.03125 2.03125 1.015625l0.25 -0.875l1.1875 0l-1.28125 7.578125q-0.203125 1.484375 -1.203125 2.375q-1.0 0.890625 -2.453125 0.859375q-0.796875 -0.015625 -1.515625 -0.375q-0.71875 -0.359375 -1.125 -0.984375l0.734375 -0.796875q0.703125 1.046875 1.859375 1.0625q0.921875 0.03125 1.5625 -0.515625q0.640625 -0.53125 0.84375 -1.53125l0.140625 -0.6875q-0.9375 0.9375 -2.203125 0.90625q-0.734375 -0.015625 -1.265625 -0.375q-0.53125 -0.375 -0.828125 -1.078125q-0.28125 -0.703125 -0.3125 -1.5625q-0.015625 -0.421875 0.03125 -1.015625zm1.265625 0.734375q-0.03125 1.03125 0.34375 1.59375q0.375 0.5625 1.140625 0.59375q1.15625 0.03125 2.0 -1.140625l0.609375 -3.5625q-0.4375 -1.0625 -1.5625 -1.09375q-1.046875 -0.03125 -1.734375 0.859375q-0.671875 0.875 -0.78125 2.390625l-0.015625 0.359375zm9.769653 3.296875q-1.453125 -0.03125 -2.265625 -1.0625q-0.8125 -1.03125 -0.6875 -2.65625l0.03125 -0.3125q0.125 -1.140625 0.6875 -2.09375q0.5625 -0.953125 1.359375 -1.4375q0.8125 -0.484375 1.75 -0.46875q1.203125 0.03125 1.875 0.796875q0.6875 0.765625 0.75 2.078125q0.015625 0.46875 -0.03125 0.921875l-0.078125 0.59375l-5.0625 0q-0.125 1.0625 0.34375 1.796875q0.484375 0.734375 1.421875 0.765625q1.15625 0.03125 2.125 -1.03125l0.75 0.625q-0.5 0.703125 -1.265625 1.109375q-0.765625 0.390625 -1.703125 0.375zm0.8125 -6.953125q-0.796875 -0.015625 -1.40625 0.546875q-0.59375 0.5625 -0.9375 1.6875l3.765625 0l0.03125 -0.109375q0.109375 -0.90625 -0.296875 -1.5q-0.40625 -0.59375 -1.15625 -0.625z"
       fill-rule="nonzero"
       id="path88" />
    <path
       fill="#000000"
       d="m468.88904 461.39944q0 -1.609375 0.421875 -3.09375q0.4375 -1.5 1.296875 -2.703125q0.859375 -1.21875 1.78125 -1.734375l0.28125 0.875q-1.046875 0.8125 -1.71875 2.453125q-0.671875 1.640625 -0.734375 3.6875l0 0.609375q0 2.765625 1.0 4.796875q0.609375 1.21875 1.453125 1.90625l-0.28125 0.796875q-0.953125 -0.53125 -1.8125 -1.765625q-1.6875 -2.4375 -1.6875 -5.828125z"
       fill-rule="nonzero"
       id="path90" />
    <path
       fill="#000000"
       d="m473.88287 465.63382l0 -10.421875l3.203125 0q1.375 0 2.453125 0.625q1.078125 0.609375 1.6875 1.75q0.609375 1.140625 0.609375 2.59375l0 0.484375q0 1.453125 -0.59375 2.59375q-0.59375 1.125 -1.6875 1.75q-1.078125 0.625 -2.453125 0.625l-3.21875 0zm2.140625 -8.6875l0 6.96875l1.03125 0q1.265625 0 1.921875 -0.828125q0.671875 -0.828125 0.6875 -2.359375l0 -0.546875q0 -1.59375 -0.65625 -2.40625q-0.65625 -0.828125 -1.921875 -0.828125l-1.0625 0zm11.5876465 2.890625q-0.421875 -0.0625 -0.734375 -0.0625q-1.171875 0 -1.546875 0.796875l0 5.0625l-2.0625 0l0 -7.75l1.953125 0l0.0625 0.9375q0.609375 -1.078125 1.71875 -1.078125q0.34375 0 0.640625 0.09375l-0.03125 2.0zm5.271576 5.796875q-0.140625 -0.28125 -0.203125 -0.6875q-0.75 0.828125 -1.953125 0.828125q-1.140625 0 -1.890625 -0.65625q-0.75 -0.65625 -0.75 -1.65625q0 -1.234375 0.90625 -1.890625q0.921875 -0.65625 2.640625 -0.671875l0.953125 0l0 -0.4375q0 -0.53125 -0.28125 -0.859375q-0.265625 -0.328125 -0.859375 -0.328125q-0.515625 0 -0.8125 0.25q-0.296875 0.25 -0.296875 0.6875l-2.078125 0q0 -0.671875 0.40625 -1.234375q0.421875 -0.578125 1.171875 -0.90625q0.765625 -0.328125 1.71875 -0.328125q1.421875 0 2.265625 0.71875q0.84375 0.71875 0.84375 2.03125l0 3.34375q0.015625 1.109375 0.3125 1.671875l0 0.125l-2.09375 0zm-1.703125 -1.4375q0.453125 0 0.828125 -0.203125q0.390625 -0.203125 0.578125 -0.546875l0 -1.328125l-0.765625 0q-1.5625 0 -1.65625 1.0625l0 0.125q0 0.390625 0.265625 0.640625q0.265625 0.25 0.75 0.25zm5.6389465 1.4375l0 -6.21875l-1.15625 0l0 -1.53125l1.15625 0l0 -0.65625q0 -1.296875 0.75 -2.015625q0.75 -0.71875 2.09375 -0.71875q0.421875 0 1.046875 0.140625l-0.015625 1.609375q-0.265625 -0.0625 -0.640625 -0.0625q-1.15625 0 -1.15625 1.09375l0 0.609375l1.53125 0l0 1.53125l-1.53125 0l0 6.21875l-2.078125 0zm7.159027 -9.640625l0 1.890625l1.328125 0l0 1.53125l-1.328125 0l0 3.859375q0 0.421875 0.15625 0.609375q0.171875 0.1875 0.640625 0.1875q0.34375 0 0.609375 -0.046875l0 1.5625q-0.609375 0.1875 -1.25 0.1875q-2.171875 0 -2.21875 -2.1875l0 -4.171875l-1.125 0l0 -1.53125l1.125 0l0 -1.890625l2.0625 0z"
       fill-rule="nonzero"
       id="path92" />
    <path
       fill="#000000"
       d="m509.72665 461.47757q0 1.59375 -0.421875 3.0625q-0.421875 1.453125 -1.28125 2.6875q-0.859375 1.25 -1.8125 1.765625l-0.28125 -0.796875q1.109375 -0.859375 1.78125 -2.625q0.671875 -1.78125 0.6875 -3.953125l0 -0.234375q0 -1.5 -0.328125 -2.78125q-0.3125 -1.296875 -0.875 -2.3125q-0.5625 -1.03125 -1.265625 -1.609375l0.28125 -0.8125q0.953125 0.53125 1.796875 1.765625q0.859375 1.21875 1.28125 2.6875q0.4375 1.46875 0.4375 3.15625z"
       fill-rule="nonzero"
       id="path94" />
    <path
       fill="#000000"
       fill-opacity="0.0"
       d="m505.77692 239.10236l0.4724121 121.51181"
       fill-rule="evenodd"
       id="path96" />
    <path
       stroke="#595959"
       stroke-width="1.0"
       stroke-linejoin="round"
       stroke-linecap="butt"
       d="m505.77692 239.10236l0.44909668 115.51187"
       fill-rule="evenodd"
       id="path98" />
    <path
       fill="#595959"
       stroke="#595959"
       stroke-width="1.0"
       stroke-linecap="butt"
       d="m504.5743 354.62064l1.669342 4.5316467l1.6340942 -4.5444946z"
       fill-rule="evenodd"
       id="path100" />
    <path
       fill="#ffffff"
       d="m619.90027 380.0606l0 0c0 -6.3376465 5.1376343 -11.475311 11.475281 -11.475311l184.57697 0c3.043457 0 5.962219 1.2090149 8.114258 3.3610535c2.1520386 2.152008 3.361023 5.070801 3.361023 8.114258l0 45.89978c0 6.3376465 -5.1376343 11.475311 -11.475281 11.475311l-184.57697 0c-6.3376465 0 -11.475281 -5.137665 -11.475281 -11.475311z"
       fill-rule="evenodd"
       id="path102" />
    <path
       stroke="#595959"
       stroke-width="1.0"
       stroke-linejoin="round"
       stroke-linecap="butt"
       d="m619.90027 380.0606l0 0c0 -6.3376465 5.1376343 -11.475311 11.475281 -11.475311l184.57697 0c3.043457 0 5.962219 1.2090149 8.114258 3.3610535c2.1520386 2.152008 3.361023 5.070801 3.361023 8.114258l0 45.89978c0 6.3376465 -5.1376343 11.475311 -11.475281 11.475311l-184.57697 0c-6.3376465 0 -11.475281 -5.137665 -11.475281 -11.475311z"
       fill-rule="evenodd"
       id="path104" />
    <path
       fill="#000000"
       d="m700.0508 404.75488l0 4.015625l-2.34375 0l0 -11.375l4.4375 0q1.28125 0 2.25 0.46875q0.984375 0.46875 1.5 1.328125q0.53125 0.859375 0.53125 1.96875q0 1.671875 -1.15625 2.640625q-1.140625 0.953125 -3.15625 0.953125l-2.0625 0zm0 -1.890625l2.09375 0q0.9375 0 1.421875 -0.4375q0.484375 -0.4375 0.484375 -1.25q0 -0.84375 -0.5 -1.359375q-0.484375 -0.515625 -1.34375 -0.53125l-2.15625 0l0 3.578125zm12.8984375 5.046875q-0.84375 1.015625 -2.3125 1.015625q-1.359375 0 -2.078125 -0.78125q-0.71875 -0.78125 -0.734375 -2.296875l0 -5.53125l2.265625 0l0 5.453125q0 1.328125 1.203125 1.328125q1.140625 0 1.578125 -0.796875l0 -5.984375l2.265625 0l0 8.453125l-2.125 0l-0.0625 -0.859375zm11.5 -3.296875q0 2.03125 -0.875 3.171875q-0.859375 1.140625 -2.40625 1.140625q-1.375 0 -2.203125 -1.0625l-0.09375 0.90625l-2.03125 0l0 -12.0l2.25 0l0 4.296875q0.78125 -0.90625 2.0625 -0.90625q1.546875 0 2.421875 1.140625q0.875 1.125 0.875 3.1875l0 0.125zm-2.25 -0.15625q0 -1.28125 -0.40625 -1.875q-0.40625 -0.59375 -1.21875 -0.59375q-1.078125 0 -1.484375 0.890625l0 3.328125q0.421875 0.890625 1.5 0.890625q1.09375 0 1.4375 -1.078125q0.171875 -0.515625 0.171875 -1.5625zm6.0234375 4.3125l-2.265625 0l0 -12.0l2.265625 0l0 12.0zm4.2421875 0l-2.265625 0l0 -8.453125l2.265625 0l0 8.453125zm-2.390625 -10.640625q0 -0.515625 0.328125 -0.84375q0.34375 -0.328125 0.9375 -0.328125q0.578125 0 0.921875 0.328125q0.34375 0.328125 0.34375 0.84375q0 0.515625 -0.359375 0.84375q-0.34375 0.328125 -0.921875 0.328125q-0.5625 0 -0.90625 -0.328125q-0.34375 -0.328125 -0.34375 -0.84375zm8.8359375 8.296875q0 -0.40625 -0.421875 -0.640625q-0.40625 -0.25 -1.3125 -0.4375q-3.015625 -0.625 -3.015625 -2.5625q0 -1.125 0.9375 -1.875q0.9375 -0.75 2.4375 -0.75q1.609375 0 2.578125 0.765625q0.96875 0.75 0.96875 1.953125l-2.265625 0q0 -0.484375 -0.3125 -0.796875q-0.3125 -0.3125 -0.96875 -0.3125q-0.578125 0 -0.890625 0.265625q-0.3125 0.25 -0.3125 0.640625q0 0.375 0.359375 0.609375q0.359375 0.234375 1.203125 0.40625q0.84375 0.15625 1.421875 0.375q1.78125 0.65625 1.78125 2.265625q0 1.15625 -1.0 1.875q-0.984375 0.71875 -2.546875 0.71875q-1.0625 0 -1.890625 -0.375q-0.828125 -0.390625 -1.296875 -1.046875q-0.46875 -0.65625 -0.46875 -1.421875l2.140625 0q0.03125 0.59375 0.4375 0.921875q0.421875 0.3125 1.125 0.3125q0.640625 0 0.96875 -0.234375q0.34375 -0.25 0.34375 -0.65625zm5.8515625 -5.1875q0.890625 -1.078125 2.25 -1.078125q2.75 0 2.796875 3.1875l0 5.421875l-2.265625 0l0 -5.359375q0 -0.71875 -0.3125 -1.0625q-0.3125 -0.359375 -1.03125 -0.359375q-1.0 0 -1.4375 0.765625l0 6.015625l-2.265625 0l0 -12.0l2.265625 0l0 4.46875z"
       fill-rule="nonzero"
       id="path106" />
    <path
       fill="#000000"
       fill-opacity="0.0"
       d="m514.8635 403.65616l105.03937 -0.62991333"
       fill-rule="evenodd"
       id="path108" />
    <path
       stroke="#595959"
       stroke-width="1.0"
       stroke-linejoin="round"
       stroke-linecap="butt"
       d="m514.8635 403.65616l99.03949 -0.5939331"
       fill-rule="evenodd"
       id="path110" />
    <path
       fill="#595959"
       stroke="#595959"
       stroke-width="1.0"
       stroke-linecap="butt"
       d="m613.9129 404.71393l4.528137 -1.6789246l-4.5479736 -1.6244812z"
       fill-rule="evenodd"
       id="path112" />
    <path
       fill="#f3f3f3"
       d="m689.23883 195.30573l51.637817 0l0 51.637787l-51.637817 0z"
       fill-rule="evenodd"
       id="path114" />
    <path
       fill="#c2c2c2"
       d="m740.87665 195.30573l17.212585 -17.2126l0 51.637787l-17.212585 17.2126z"
       fill-rule="evenodd"
       id="path116" />
    <path
       fill="#f5f5f5"
       d="m689.23883 195.30573l17.212585 -17.2126l51.637817 0l-17.212585 17.2126z"
       fill-rule="evenodd"
       id="path118" />
    <path
       fill="#000000"
       fill-opacity="0.0"
       d="m689.23883 195.30573l17.212585 -17.2126l51.637817 0l0 51.637787l-17.212585 17.2126l-51.637817 0zm0 0l51.637817 0l17.212585 -17.2126m-17.212585 17.2126l0 51.637787"
       fill-rule="evenodd"
       id="path120" />
    <path
       stroke="#595959"
       stroke-width="1.0"
       stroke-linejoin="round"
       stroke-linecap="butt"
       d="m689.23883 195.30573l17.212585 -17.2126l51.637817 0l0 51.637787l-17.212585 17.2126l-51.637817 0zm0 0l51.637817 0l17.212585 -17.2126m-17.212585 17.2126l0 51.637787"
       fill-rule="evenodd"
       id="path122" />
    <path
       fill="#000000"
       fill-opacity="0.0"
       d="m637.5393 245.65218l172.25195 0l0 46.740158l-172.25195 0z"
       fill-rule="evenodd"
       id="path124" />
    <path
       fill="#000000"
       d="m662.9877 260.67413l-1.515625 1.359375l-0.609375 3.46875l-1.34375 0l1.8125 -10.421875l1.34375 0l-0.890625 5.078125l5.3125 -5.078125l1.734375 0l-4.84375 4.671875l3.234375 5.75l-1.484375 0l-2.75 -4.828125zm7.7227783 -2.921875l-0.1875 0.984375q1.046875 -1.15625 2.375 -1.125q1.09375 0.03125 1.609375 0.765625q0.53125 0.734375 0.390625 2.046875l-0.84375 5.078125l-1.296875 0l0.859375 -5.09375q0.03125 -0.359375 0 -0.65625q-0.125 -1.0 -1.1875 -1.015625q-1.15625 -0.03125 -2.046875 1.234375l-0.953125 5.53125l-1.296875 0l1.34375 -7.75l1.234375 0zm9.633667 -0.140625q0.984375 0.015625 1.671875 0.53125q0.703125 0.515625 1.03125 1.421875q0.328125 0.90625 0.21875 1.984375l-0.015625 0.15625q-0.125 1.125 -0.671875 2.046875q-0.53125 0.90625 -1.390625 1.421875q-0.84375 0.5 -1.859375 0.46875q-0.96875 -0.015625 -1.671875 -0.53125q-0.6875 -0.515625 -1.015625 -1.390625q-0.3125 -0.890625 -0.21875 -1.96875q0.09375 -1.1875 0.640625 -2.140625q0.546875 -0.96875 1.40625 -1.5q0.859375 -0.53125 1.875 -0.5zm-2.625 4.15625q-0.046875 0.453125 0 0.9375q0.0625 0.84375 0.5 1.34375q0.4375 0.5 1.15625 0.515625q0.640625 0.03125 1.1875 -0.3125q0.546875 -0.34375 0.921875 -1.03125q0.375 -0.6875 0.484375 -1.515625q0.046875 -0.65625 0.015625 -1.109375q-0.09375 -0.875 -0.53125 -1.375q-0.421875 -0.5 -1.15625 -0.53125q-1.0 -0.015625 -1.703125 0.796875q-0.703125 0.8125 -0.859375 2.109375l-0.015625 0.171875zm13.460999 1.90625l2.46875 -5.921875l1.34375 0l-3.53125 7.75l-1.0625 0l-0.796875 -5.859375l-2.78125 5.859375l-1.0625 0l-0.828125 -7.75l1.234375 0l0.46875 5.78125l2.75 -5.78125l1.046875 0l0.75 5.921875zm5.2091675 1.828125l-1.28125 0l1.890625 -11.0l1.296875 0l-1.90625 11.0zm5.47406 0.140625q-1.453125 -0.03125 -2.265625 -1.0625q-0.8125 -1.03125 -0.6875 -2.65625l0.03125 -0.3125q0.125 -1.140625 0.6875 -2.09375q0.5625 -0.953125 1.359375 -1.4375q0.8125 -0.484375 1.75 -0.46875q1.203125 0.03125 1.875 0.796875q0.6875 0.765625 0.75 2.078125q0.015625 0.46875 -0.03125 0.921875l-0.078125 0.59375l-5.0625 0q-0.125 1.0625 0.34375 1.796875q0.484375 0.734375 1.421875 0.765625q1.15625 0.03125 2.125 -1.03125l0.75 0.625q-0.5 0.703125 -1.265625 1.109375q-0.765625 0.390625 -1.703125 0.375zm0.8125 -6.953125q-0.796875 -0.015625 -1.40625 0.546875q-0.59375 0.5625 -0.9375 1.6875l3.765625 0l0.03125 -0.109375q0.109375 -0.90625 -0.296875 -1.5q-0.40625 -0.59375 -1.15625 -0.625zm3.8031616 2.921875q0.140625 -1.171875 0.640625 -2.125q0.515625 -0.953125 1.25 -1.421875q0.75 -0.484375 1.65625 -0.453125q1.296875 0.03125 1.984375 0.9375l0.75 -4.046875l1.296875 0l-1.90625 11.0l-1.1875 0l0.140625 -0.828125q-0.921875 1.0 -2.265625 0.96875q-1.078125 -0.03125 -1.71875 -0.84375q-0.625 -0.8125 -0.671875 -2.171875q-0.03125 -0.421875 0.03125 -1.015625zm1.25 0.75q-0.03125 1.015625 0.359375 1.59375q0.390625 0.5625 1.125 0.578125q1.125 0.046875 2.0 -1.140625l0.625 -3.578125q-0.4375 -1.046875 -1.5625 -1.078125q-0.765625 -0.03125 -1.359375 0.453125q-0.578125 0.484375 -0.890625 1.359375q-0.296875 0.859375 -0.296875 1.8125zm6.836731 -0.75q0.171875 -1.265625 0.6875 -2.1875q0.515625 -0.9375 1.25 -1.390625q0.734375 -0.453125 1.609375 -0.421875q1.34375 0.03125 2.03125 1.015625l0.25 -0.875l1.1875 0l-1.28125 7.578125q-0.203125 1.484375 -1.203125 2.375q-1.0 0.890625 -2.453125 0.859375q-0.796875 -0.015625 -1.515625 -0.375q-0.71875 -0.359375 -1.125 -0.984375l0.734375 -0.796875q0.703125 1.046875 1.859375 1.0625q0.921875 0.03125 1.5625 -0.515625q0.640625 -0.53125 0.84375 -1.53125l0.140625 -0.6875q-0.9375 0.9375 -2.203125 0.90625q-0.734375 -0.015625 -1.265625 -0.375q-0.53125 -0.375 -0.828125 -1.078125q-0.28125 -0.703125 -0.3125 -1.5625q-0.015625 -0.421875 0.03125 -1.015625zm1.265625 0.734375q-0.03125 1.03125 0.34375 1.59375q0.375 0.5625 1.140625 0.59375q1.15625 0.03125 2.0 -1.140625l0.609375 -3.5625q-0.4375 -1.0625 -1.5625 -1.09375q-1.046875 -0.03125 -1.734375 0.859375q-0.671875 0.875 -0.78125 2.390625l-0.015625 0.359375zm9.769653 3.296875q-1.453125 -0.03125 -2.265625 -1.0625q-0.8125 -1.03125 -0.6875 -2.65625l0.03125 -0.3125q0.125 -1.140625 0.6875 -2.09375q0.5625 -0.953125 1.359375 -1.4375q0.8125 -0.484375 1.75 -0.46875q1.203125 0.03125 1.875 0.796875q0.6875 0.765625 0.75 2.078125q0.015625 0.46875 -0.03125 0.921875l-0.078125 0.59375l-5.0625 0q-0.125 1.0625 0.34375 1.796875q0.484375 0.734375 1.421875 0.765625q1.15625 0.03125 2.125 -1.03125l0.75 0.625q-0.5 0.703125 -1.265625 1.109375q-0.765625 0.390625 -1.703125 0.375zm0.8125 -6.953125q-0.796875 -0.015625 -1.40625 0.546875q-0.59375 0.5625 -0.9375 1.6875l3.765625 0l0.03125 -0.109375q0.109375 -0.90625 -0.296875 -1.5q-0.40625 -0.59375 -1.15625 -0.625zm9.270691 2.734375l-0.703125 4.078125l-1.34375 0l1.8125 -10.421875l3.46875 0.015625q1.625 0 2.484375 0.859375q0.875 0.84375 0.765625 2.265625q-0.140625 1.484375 -1.203125 2.34375q-1.0625 0.859375 -2.796875 0.859375l-2.484375 0zm0.203125 -1.125l2.3125 0q1.09375 0 1.796875 -0.546875q0.703125 -0.546875 0.828125 -1.53125q0.109375 -0.875 -0.375 -1.421875q-0.46875 -0.546875 -1.390625 -0.578125l-2.46875 0l-0.703125 4.078125zm11.240967 5.203125q-0.046875 -0.203125 -0.046875 -0.40625l0.03125 -0.40625q-1.078125 0.984375 -2.265625 0.953125q-1.03125 -0.015625 -1.671875 -0.640625q-0.640625 -0.640625 -0.578125 -1.59375q0.078125 -1.234375 1.078125 -1.921875q1.0 -0.6875 2.640625 -0.6875l1.359375 0.015625l0.078125 -0.625q0.078125 -0.6875 -0.265625 -1.09375q-0.34375 -0.40625 -1.015625 -0.421875q-0.671875 -0.015625 -1.1875 0.328125q-0.5 0.34375 -0.625 0.890625l-1.296875 0.015625q0.0625 -0.6875 0.53125 -1.203125q0.46875 -0.53125 1.1875 -0.8125q0.734375 -0.296875 1.515625 -0.28125q1.203125 0.03125 1.875 0.734375q0.6875 0.703125 0.578125 1.875l-0.640625 3.828125l-0.03125 0.546875q-0.015625 0.390625 0.09375 0.78125l-0.015625 0.125l-1.328125 0zm-2.03125 -1.0q0.625 0.015625 1.171875 -0.296875q0.5625 -0.3125 0.96875 -0.859375l0.28125 -1.59375l-0.984375 -0.015625q-1.21875 0 -1.875 0.390625q-0.65625 0.390625 -0.734375 1.09375q-0.0625 0.546875 0.25 0.90625q0.3125 0.359375 0.921875 0.375zm8.385742 0.0625q0.6875 0.015625 1.234375 -0.390625q0.5625 -0.421875 0.734375 -1.109375l1.234375 0q-0.109375 0.734375 -0.59375 1.328125q-0.46875 0.59375 -1.203125 0.9375q-0.71875 0.34375 -1.46875 0.3125q-0.96875 -0.015625 -1.640625 -0.5q-0.671875 -0.5 -0.984375 -1.375q-0.3125 -0.875 -0.21875 -1.96875l0.046875 -0.359375q0.125 -1.109375 0.640625 -1.984375q0.515625 -0.890625 1.34375 -1.375q0.84375 -0.5 1.84375 -0.46875q1.21875 0.03125 1.9375 0.828125q0.734375 0.78125 0.734375 1.984375l-1.203125 0q-0.015625 -0.765625 -0.421875 -1.234375q-0.40625 -0.46875 -1.109375 -0.5q-1.0 -0.015625 -1.671875 0.765625q-0.671875 0.765625 -0.84375 2.15625l-0.015625 0.1875q-0.046875 0.453125 -0.015625 0.9375q0.046875 0.84375 0.46875 1.328125q0.421875 0.484375 1.171875 0.5zm7.01416 -2.640625l-1.015625 0.921875l-0.453125 2.65625l-1.296875 0l1.90625 -11.0l1.296875 0l-1.140625 6.578125l0.78125 -0.796875l2.75 -2.53125l1.6875 0l-3.5625 3.3125l2.453125 4.4375l-1.421875 0l-1.984375 -3.578125zm9.23114 3.578125q-0.046875 -0.203125 -0.046875 -0.40625l0.03125 -0.40625q-1.078125 0.984375 -2.265625 0.953125q-1.03125 -0.015625 -1.671875 -0.640625q-0.640625 -0.640625 -0.578125 -1.59375q0.078125 -1.234375 1.078125 -1.921875q1.0 -0.6875 2.640625 -0.6875l1.359375 0.015625l0.078125 -0.625q0.078125 -0.6875 -0.265625 -1.09375q-0.34375 -0.40625 -1.015625 -0.421875q-0.671875 -0.015625 -1.1875 0.328125q-0.5 0.34375 -0.625 0.890625l-1.296875 0.015625q0.0625 -0.6875 0.53125 -1.203125q0.46875 -0.53125 1.1875 -0.8125q0.734375 -0.296875 1.515625 -0.28125q1.203125 0.03125 1.875 0.734375q0.6875 0.703125 0.578125 1.875l-0.640625 3.828125l-0.03125 0.546875q-0.015625 0.390625 0.09375 0.78125l-0.015625 0.125l-1.328125 0zm-2.03125 -1.0q0.625 0.015625 1.171875 -0.296875q0.5625 -0.3125 0.96875 -0.859375l0.28125 -1.59375l-0.984375 -0.015625q-1.21875 0 -1.875 0.390625q-0.65625 0.390625 -0.734375 1.09375q-0.0625 0.546875 0.25 0.90625q0.3125 0.359375 0.921875 0.375zm5.479492 -2.890625q0.171875 -1.265625 0.6875 -2.1875q0.515625 -0.9375 1.25 -1.390625q0.734375 -0.453125 1.609375 -0.421875q1.34375 0.03125 2.03125 1.015625l0.25 -0.875l1.1875 0l-1.28125 7.578125q-0.203125 1.484375 -1.203125 2.375q-1.0 0.890625 -2.453125 0.859375q-0.796875 -0.015625 -1.515625 -0.375q-0.71875 -0.359375 -1.125 -0.984375l0.734375 -0.796875q0.703125 1.046875 1.859375 1.0625q0.921875 0.03125 1.5625 -0.515625q0.640625 -0.53125 0.84375 -1.53125l0.140625 -0.6875q-0.9375 0.9375 -2.203125 0.90625q-0.734375 -0.015625 -1.265625 -0.375q-0.53125 -0.375 -0.828125 -1.078125q-0.28125 -0.703125 -0.3125 -1.5625q-0.015625 -0.421875 0.03125 -1.015625zm1.265625 0.734375q-0.03125 1.03125 0.34375 1.59375q0.375 0.5625 1.140625 0.59375q1.15625 0.03125 2.0 -1.140625l0.609375 -3.5625q-0.4375 -1.0625 -1.5625 -1.09375q-1.046875 -0.03125 -1.734375 0.859375q-0.671875 0.875 -0.78125 2.390625l-0.015625 0.359375zm9.769653 3.296875q-1.453125 -0.03125 -2.265625 -1.0625q-0.8125 -1.03125 -0.6875 -2.65625l0.03125 -0.3125q0.125 -1.140625 0.6875 -2.09375q0.5625 -0.953125 1.359375 -1.4375q0.8125 -0.484375 1.75 -0.46875q1.203125 0.03125 1.875 0.796875q0.6875 0.765625 0.75 2.078125q0.015625 0.46875 -0.03125 0.921875l-0.078125 0.59375l-5.0625 0q-0.125 1.0625 0.34375 1.796875q0.484375 0.734375 1.421875 0.765625q1.15625 0.03125 2.125 -1.03125l0.75 0.625q-0.5 0.703125 -1.265625 1.109375q-0.765625 0.390625 -1.703125 0.375zm0.8125 -6.953125q-0.796875 -0.015625 -1.40625 0.546875q-0.59375 0.5625 -0.9375 1.6875l3.765625 0l0.03125 -0.109375q0.109375 -0.90625 -0.296875 -1.5q-0.40625 -0.59375 -1.15625 -0.625z"
       fill-rule="nonzero"
       id="path126" />
    <path
       fill="#000000"
       d="m686.7684 278.8679q0 -1.609375 0.421875 -3.09375q0.4375 -1.5 1.296875 -2.703125q0.859375 -1.21875 1.78125 -1.734375l0.28125 0.875q-1.046875 0.8125 -1.71875 2.453125q-0.671875 1.640625 -0.734375 3.6875l0 0.609375q0 2.765625 1.0 4.796875q0.609375 1.21875 1.453125 1.90625l-0.28125 0.796875q-0.953125 -0.53125 -1.8125 -1.765625q-1.6875 -2.4375 -1.6875 -5.828125z"
       fill-rule="nonzero"
       id="path128" />
    <path
       fill="#000000"
       d="m693.90283 279.4304l0 3.671875l-2.140625 0l0 -10.421875l4.0625 0q1.171875 0 2.0625 0.4375q0.890625 0.421875 1.359375 1.21875q0.484375 0.78125 0.484375 1.796875q0 1.53125 -1.046875 2.421875q-1.046875 0.875 -2.90625 0.875l-1.875 0zm0 -1.734375l1.921875 0q0.84375 0 1.28125 -0.40625q0.453125 -0.40625 0.453125 -1.140625q0 -0.765625 -0.453125 -1.234375q-0.4375 -0.484375 -1.234375 -0.5l-1.96875 0l0 3.28125zm11.812927 4.625q-0.765625 0.921875 -2.125 0.921875q-1.25 0 -1.90625 -0.703125q-0.640625 -0.71875 -0.65625 -2.109375l0 -5.078125l2.0625 0l0 5.015625q0 1.203125 1.109375 1.203125q1.046875 0 1.4375 -0.734375l0 -5.484375l2.078125 0l0 7.75l-1.953125 0l-0.046875 -0.78125zm10.529358 -3.015625q0 1.859375 -0.796875 2.90625q-0.78125 1.03125 -2.203125 1.03125q-1.265625 0 -2.015625 -0.96875l-0.09375 0.828125l-1.859375 0l0 -11.0l2.0625 0l0 3.953125q0.71875 -0.84375 1.890625 -0.84375q1.40625 0 2.203125 1.046875q0.8125 1.046875 0.8125 2.921875l0 0.125zm-2.0625 -0.15625q0 -1.171875 -0.375 -1.703125q-0.375 -0.546875 -1.109375 -0.546875q-0.984375 0 -1.359375 0.8125l0 3.046875q0.375 0.8125 1.375 0.8125q1.0 0 1.3125 -0.984375q0.15625 -0.46875 0.15625 -1.4375zm5.5325317 3.953125l-2.078125 0l0 -11.0l2.078125 0l0 11.0zm3.8859253 0l-2.078125 0l0 -7.75l2.078125 0l0 7.75zm-2.203125 -9.75q0 -0.46875 0.3125 -0.765625q0.3125 -0.296875 0.84375 -0.296875q0.53125 0 0.84375 0.296875q0.3125 0.296875 0.3125 0.765625q0 0.46875 -0.3125 0.78125q-0.3125 0.296875 -0.84375 0.296875q-0.515625 0 -0.84375 -0.296875q-0.3125 -0.3125 -0.3125 -0.78125zm8.08905 7.609375q0 -0.375 -0.375 -0.59375q-0.375 -0.21875 -1.203125 -0.390625q-2.765625 -0.578125 -2.765625 -2.34375q0 -1.03125 0.859375 -1.71875q0.859375 -0.703125 2.234375 -0.703125q1.46875 0 2.359375 0.703125q0.890625 0.6875 0.890625 1.796875l-2.078125 0q0 -0.4375 -0.28125 -0.71875q-0.28125 -0.296875 -0.890625 -0.296875q-0.53125 0 -0.8125 0.234375q-0.28125 0.234375 -0.28125 0.59375q0 0.34375 0.3125 0.5625q0.328125 0.203125 1.09375 0.359375q0.78125 0.15625 1.3125 0.34375q1.640625 0.609375 1.640625 2.09375q0 1.046875 -0.90625 1.703125q-0.90625 0.65625 -2.34375 0.65625q-0.984375 0 -1.734375 -0.34375q-0.75 -0.34375 -1.1875 -0.953125q-0.421875 -0.609375 -0.421875 -1.3125l1.953125 0q0.03125 0.5625 0.40625 0.859375q0.390625 0.28125 1.015625 0.28125q0.59375 0 0.890625 -0.21875q0.3125 -0.234375 0.3125 -0.59375zm5.3637695 -4.765625q0.828125 -0.984375 2.0625 -0.984375q2.53125 0 2.5625 2.9375l0 4.953125l-2.0625 0l0 -4.90625q0 -0.65625 -0.296875 -0.96875q-0.28125 -0.328125 -0.953125 -0.328125q-0.90625 0 -1.3125 0.703125l0 5.5l-2.0625 0l0 -11.0l2.0625 0l0 4.09375zm9.748047 7.046875q-1.703125 0 -2.78125 -1.046875q-1.0625 -1.046875 -1.0625 -2.78125l0 -0.203125q0 -1.15625 0.453125 -2.078125q0.453125 -0.921875 1.265625 -1.421875q0.828125 -0.5 1.890625 -0.5q1.59375 0 2.5 1.015625q0.921875 1.0 0.921875 2.828125l0 0.84375l-4.9375 0q0.109375 0.765625 0.609375 1.21875q0.5 0.453125 1.28125 0.453125q1.1875 0 1.859375 -0.859375l1.015625 1.140625q-0.46875 0.65625 -1.265625 1.03125q-0.78125 0.359375 -1.75 0.359375zm-0.234375 -6.359375q-0.625 0 -1.015625 0.421875q-0.375 0.421875 -0.46875 1.1875l2.875 0l0 -0.15625q-0.015625 -0.6875 -0.375 -1.0625q-0.359375 -0.390625 -1.015625 -0.390625zm4.265869 2.296875q0 -1.8125 0.8125 -2.890625q0.8125 -1.078125 2.21875 -1.078125q1.140625 0 1.875 0.84375l0 -3.953125l2.078125 0l0 11.0l-1.875 0l-0.09375 -0.828125q-0.78125 0.96875 -1.984375 0.96875q-1.375 0 -2.203125 -1.078125q-0.828125 -1.078125 -0.828125 -2.984375zm2.078125 0.140625q0 1.09375 0.375 1.671875q0.375 0.578125 1.09375 0.578125q0.96875 0 1.359375 -0.8125l0 -3.046875q-0.390625 -0.8125 -1.34375 -0.8125q-1.484375 0 -1.484375 2.421875z"
       fill-rule="nonzero"
       id="path130" />
    <path
       fill="#000000"
       d="m760.48254 278.946q0 1.59375 -0.421875 3.0625q-0.421875 1.453125 -1.28125 2.6875q-0.859375 1.25 -1.8125 1.765625l-0.28125 -0.796875q1.109375 -0.859375 1.78125 -2.625q0.671875 -1.78125 0.6875 -3.953125l0 -0.234375q0 -1.5 -0.328125 -2.78125q-0.3125 -1.296875 -0.875 -2.3125q-0.5625 -1.03125 -1.265625 -1.609375l0.28125 -0.8125q0.953125 0.53125 1.796875 1.765625q0.859375 1.21875 1.28125 2.6875q0.4375 1.46875 0.4375 3.15625z"
       fill-rule="nonzero"
       id="path132" />
    <path
       fill="#000000"
       fill-opacity="0.0"
       d="m723.66406 368.5853l0 -76.188965"
       fill-rule="evenodd"
       id="path134" />
    <path
       stroke="#595959"
       stroke-width="1.0"
       stroke-linejoin="round"
       stroke-linecap="butt"
       d="m723.66406 368.5853l0 -70.188965"
       fill-rule="evenodd"
       id="path136" />
    <path
       fill="#595959"
       stroke="#595959"
       stroke-width="1.0"
       stroke-linecap="butt"
       d="m725.3158 298.39633l-1.6517334 -4.5381165l-1.6517334 4.5381165z"
       fill-rule="evenodd"
       id="path138" />
    <path
       fill="#ffffff"
       d="m402.01312 76.55141l0 0c0 -6.3376236 5.137665 -11.475288 11.475281 -11.475288l184.57697 0c3.043457 0 5.962219 1.2089996 8.114258 3.3610306c2.1520386 2.1520386 3.361084 5.0708237 3.361084 8.114258l0 45.89981c0 6.337631 -5.1376953 11.475296 -11.475342 11.475296l-184.57697 0c-6.337616 0 -11.475281 -5.137665 -11.475281 -11.475296z"
       fill-rule="evenodd"
       id="path140" />
    <path
       stroke="#595959"
       stroke-width="1.0"
       stroke-linejoin="round"
       stroke-linecap="butt"
       d="m402.01312 76.55141l0 0c0 -6.3376236 5.137665 -11.475288 11.475281 -11.475288l184.57697 0c3.043457 0 5.962219 1.2089996 8.114258 3.3610306c2.1520386 2.1520386 3.361084 5.0708237 3.361084 8.114258l0 45.89981c0 6.337631 -5.1376953 11.475296 -11.475342 11.475296l-184.57697 0c-6.337616 0 -11.475281 -5.137665 -11.475281 -11.475296z"
       fill-rule="evenodd"
       id="path142" />
    <path
       fill="#000000"
       d="m468.928 105.74131l-2.546875 0l-4.9375 -8.109375l0 8.109375l-2.546875 0l0 -12.3125l2.546875 0l4.953125 8.109375l0 -8.109375l2.53125 0l0 12.3125zm6.265869 0.171875q-2.015625 0 -3.28125 -1.234375q-1.265625 -1.234375 -1.265625 -3.296875l0 -0.234375q0 -1.375 0.53125 -2.453125q0.53125 -1.09375 1.5 -1.6875q0.984375 -0.59375 2.234375 -0.59375q1.890625 0 2.96875 1.1875q1.078125 1.1875 1.078125 3.359375l0 1.0l-5.828125 0q0.109375 0.890625 0.703125 1.4375q0.609375 0.546875 1.515625 0.546875q1.40625 0 2.203125 -1.03125l1.203125 1.34375q-0.546875 0.78125 -1.484375 1.21875q-0.9375 0.4375 -2.078125 0.4375zm-0.28125 -7.515625q-0.734375 0 -1.1875 0.5q-0.453125 0.484375 -0.578125 1.390625l3.40625 0l0 -0.1875q-0.015625 -0.8125 -0.4375 -1.25q-0.421875 -0.453125 -1.203125 -0.453125zm13.397583 4.015625l1.203125 -5.828125l2.359375 0l-2.34375 9.15625l-2.046875 0l-1.734375 -5.765625l-1.734375 5.765625l-2.03125 0l-2.34375 -9.15625l2.359375 0l1.203125 5.828125l1.671875 -5.828125l1.765625 0l1.671875 5.828125z"
       fill-rule="nonzero"
       id="path144" />
    <path
       fill="#000000"
       d="m500.76996 102.756935l1.703125 -6.171875l2.5625 0l-3.09375 9.15625l-2.328125 0l-3.09375 -9.15625l2.5625 0l1.6875 6.171875zm9.44397 3.15625q-2.015625 0 -3.28125 -1.234375q-1.265625 -1.234375 -1.265625 -3.296875l0 -0.234375q0 -1.375 0.53125 -2.453125q0.53125 -1.09375 1.5 -1.6875q0.984375 -0.59375 2.234375 -0.59375q1.890625 0 2.96875 1.1875q1.078125 1.1875 1.078125 3.359375l0 1.0l-5.828125 0q0.109375 0.890625 0.703125 1.4375q0.609375 0.546875 1.515625 0.546875q1.40625 0 2.203125 -1.03125l1.203125 1.34375q-0.546875 0.78125 -1.484375 1.21875q-0.9375 0.4375 -2.078125 0.4375zm-0.28125 -7.515625q-0.734375 0 -1.1875 0.5q-0.453125 0.484375 -0.578125 1.390625l3.40625 0l0 -0.1875q-0.015625 -0.8125 -0.4375 -1.25q-0.421875 -0.453125 -1.203125 -0.453125zm10.569458 0.484375q-0.5 -0.0625 -0.875 -0.0625q-1.390625 0 -1.8125 0.9375l0 5.984375l-2.453125 0l0 -9.15625l2.3125 0l0.0625 1.09375q0.734375 -1.265625 2.046875 -1.265625q0.40625 0 0.765625 0.109375l-0.046875 2.359375zm6.1328735 4.328125q0 -0.453125 -0.4375 -0.703125q-0.4375 -0.265625 -1.421875 -0.46875q-3.265625 -0.671875 -3.265625 -2.765625q0 -1.21875 1.0 -2.03125q1.015625 -0.828125 2.65625 -0.828125q1.734375 0 2.78125 0.828125q1.046875 0.8125 1.046875 2.125l-2.453125 0q0 -0.515625 -0.34375 -0.859375q-0.328125 -0.34375 -1.046875 -0.34375q-0.609375 0 -0.953125 0.28125q-0.34375 0.28125 -0.34375 0.703125q0 0.40625 0.390625 0.65625q0.390625 0.25 1.296875 0.4375q0.921875 0.171875 1.546875 0.40625q1.9375 0.71875 1.9375 2.46875q0 1.25 -1.078125 2.03125q-1.078125 0.765625 -2.78125 0.765625q-1.140625 0 -2.046875 -0.40625q-0.890625 -0.421875 -1.40625 -1.125q-0.5 -0.71875 -0.5 -1.546875l2.328125 0q0.03125 0.640625 0.46875 1.0q0.453125 0.34375 1.203125 0.34375q0.703125 0 1.0625 -0.265625q0.359375 -0.265625 0.359375 -0.703125zm6.534424 2.53125l-2.453125 0l0 -9.15625l2.453125 0l0 9.15625zm-2.59375 -11.53125q0 -0.546875 0.359375 -0.890625q0.375 -0.359375 1.015625 -0.359375q0.625 0 0.984375 0.359375q0.375 0.34375 0.375 0.890625q0 0.5625 -0.375 0.921875q-0.375 0.359375 -1.0 0.359375q-0.609375 0 -0.984375 -0.359375q-0.375 -0.359375 -0.375 -0.921875zm4.2349854 6.875q0 -1.375 0.515625 -2.4375q0.53125 -1.0625 1.515625 -1.640625q0.984375 -0.59375 2.28125 -0.59375q1.859375 0 3.03125 1.140625q1.171875 1.125 1.3125 3.078125l0.015625 0.625q0 2.109375 -1.1875 3.390625q-1.171875 1.265625 -3.15625 1.265625q-1.96875 0 -3.15625 -1.265625q-1.171875 -1.28125 -1.171875 -3.453125l0 -0.109375zm2.4375 0.171875q0 1.296875 0.484375 2.0q0.5 0.6875 1.421875 0.6875q0.875 0 1.375 -0.6875q0.5 -0.6875 0.5 -2.171875q0 -1.28125 -0.5 -1.984375q-0.5 -0.703125 -1.40625 -0.703125q-0.890625 0 -1.390625 0.703125q-0.484375 0.6875 -0.484375 2.15625zm9.985352 -4.671875l0.078125 1.0625q0.984375 -1.234375 2.625 -1.234375q1.46875 0 2.171875 0.859375q0.71875 0.859375 0.734375 2.546875l0 5.921875l-2.453125 0l0 -5.859375q0 -0.78125 -0.34375 -1.125q-0.328125 -0.34375 -1.125 -0.34375q-1.03125 0 -1.546875 0.875l0 6.453125l-2.4375 0l0 -9.15625l2.296875 0z"
       fill-rule="nonzero"
       id="path146" />
    <path
       fill="#000000"
       fill-opacity="0.0"
       d="m732.2703 178.09312c0 -39.291336 -61.370056 -78.58268 -122.74011 -78.58268"
       fill-rule="evenodd"
       id="path148" />
    <path
       stroke="#595959"
       stroke-width="1.0"
       stroke-linejoin="round"
       stroke-linecap="butt"
       d="m732.2703 178.09311c0 -19.64566 -15.342529 -39.29132 -38.356262 -54.025574c-11.506897 -7.3671265 -24.93164 -13.506401 -39.315247 -17.803886c-7.1917725 -2.1487503 -14.623352 -3.8370438 -22.174744 -4.988159c-3.7756348 -0.5755615 -7.58136 -1.0168152 -11.401978 -1.3141937c-0.95513916 -0.07434082 -1.9112549 -0.13969421 -2.868042 -0.19589996c-0.47839355 -0.02809906 -0.9569702 -0.05391693 -1.43573 -0.077423096l-1.1894531 -0.05266571"
       fill-rule="evenodd"
       id="path150" />
    <path
       fill="#595959"
       stroke="#595959"
       stroke-width="1.0"
       stroke-linecap="butt"
       d="m615.56323 97.983925l-4.571472 1.5569458l4.5027466 1.7458038z"
       fill-rule="evenodd"
       id="path152" />
    <path
       fill="#000000"
       fill-opacity="0.0"
       d="m402.01312 99.50131c-65.02362 0 -130.04724 39.590546 -130.04724 79.18111"
       fill-rule="evenodd"
       id="path154" />
    <path
       stroke="#595959"
       stroke-width="1.0"
       stroke-linejoin="round"
       stroke-linecap="butt"
       d="m402.01312 99.50131c-32.51181 0 -65.02362 9.897636 -89.40747 24.744095c-12.191925 7.423233 -22.351868 16.083664 -29.463837 25.362701c-3.5559692 4.639511 -6.3499756 9.433685 -8.254974 14.305176c-0.95248413 2.4357452 -1.6827087 4.8908234 -2.1748352 7.3555756c-0.061523438 0.3080902 -0.11932373 0.616333 -0.17333984 0.92471313c-0.027038574 0.1541748 -0.053131104 0.3083954 -0.07824707 0.46266174l-0.007232666 0.04600525"
       fill-rule="evenodd"
       id="path156" />
    <path
       fill="#595959"
       stroke="#595959"
       stroke-width="1.0"
       stroke-linecap="butt"
       d="m270.80692 172.56808l1.27771 4.657257l2.0148315 -4.388962z"
       fill-rule="evenodd"
       id="path158" />
  </g>
</svg>
