<?xml version="1.0" encoding="UTF-8" standalone="no"?>
<svg
   viewBox="0 0 960 540"
   height="540"
   width="960"
   xml:space="preserve"
   id="svg2"
   version="1.1"
   sodipodi:docname="knowledge-package-lifecycle.svg"
   inkscape:version="1.1.2 (0a00cf5339, 2022-02-04)"
   xmlns:inkscape="http://www.inkscape.org/namespaces/inkscape"
   xmlns:sodipodi="http://sodipodi.sourceforge.net/DTD/sodipodi-0.dtd"
   xmlns="http://www.w3.org/2000/svg"
   xmlns:svg="http://www.w3.org/2000/svg"
   xmlns:rdf="http://www.w3.org/1999/02/22-rdf-syntax-ns#"
   xmlns:cc="http://creativecommons.org/ns#"
   xmlns:dc="http://purl.org/dc/elements/1.1/"><sodipodi:namedview
     id="namedview152"
     pagecolor="#ffffff"
     bordercolor="#666666"
     borderopacity="1.0"
     inkscape:pageshadow="2"
     inkscape:pageopacity="0.0"
     inkscape:pagecheckerboard="0"
     showgrid="false"
     inkscape:zoom="0.8315052"
     inkscape:cx="-7.8171489"
     inkscape:cy="265.18175"
     inkscape:window-width="1600"
     inkscape:window-height="810"
     inkscape:window-x="0"
     inkscape:window-y="28"
     inkscape:window-maximized="1"
     inkscape:current-layer="g10" /><metadata
     id="metadata8"><rdf:RDF><cc:Work
         rdf:about=""><dc:format>image/svg+xml</dc:format><dc:type
           rdf:resource="http://purl.org/dc/dcmitype/StillImage" /></cc:Work></rdf:RDF></metadata><defs
     id="defs6"><clipPath
       id="clipPath18"
       clipPathUnits="userSpaceOnUse"><path
         style="clip-rule:evenodd"
         id="path16"
         d="M 0,9.1553e-5 H 720 V 405.00009 H 0 Z" /></clipPath><clipPath
       id="clipPath32"
       clipPathUnits="userSpaceOnUse"><path
         style="clip-rule:evenodd"
         id="path30"
         d="M 1.0729e-5,0 H 720.00001 V 405 H 1.0729e-5 Z" /></clipPath><clipPath
       id="clipPath48"
       clipPathUnits="userSpaceOnUse"><path
         style="clip-rule:evenodd"
         id="path46"
         d="M 1.0729e-5,0 H 720.00001 V 405 H 1.0729e-5 Z" /></clipPath><clipPath
       id="clipPath60"
       clipPathUnits="userSpaceOnUse"><path
         style="clip-rule:evenodd"
         id="path58"
         d="M 1.0729e-5,0 H 720.00001 V 405 H 1.0729e-5 Z" /></clipPath><clipPath
       id="clipPath72"
       clipPathUnits="userSpaceOnUse"><path
         style="clip-rule:evenodd"
         id="path70"
         d="M 1.0729e-5,0 H 720.00001 V 405 H 1.0729e-5 Z" /></clipPath><clipPath
       id="clipPath96"
       clipPathUnits="userSpaceOnUse"><path
         style="clip-rule:evenodd"
         id="path94"
         d="M 1.0729e-5,0 H 720.00001 V 405 H 1.0729e-5 Z" /></clipPath><clipPath
       id="clipPath108"
       clipPathUnits="userSpaceOnUse"><path
         style="clip-rule:evenodd"
         id="path106"
         d="M 1.0729e-5,0 H 720.00001 V 405 H 1.0729e-5 Z" /></clipPath><clipPath
       id="clipPath120"
       clipPathUnits="userSpaceOnUse"><path
         style="clip-rule:evenodd"
         id="path118"
         d="M 1.0729e-5,0 H 720.00001 V 405 H 1.0729e-5 Z" /></clipPath><clipPath
       id="clipPath132"
       clipPathUnits="userSpaceOnUse"><path
         style="clip-rule:evenodd"
         id="path130"
         d="M 1.0729e-5,0 H 720.00001 V 405 H 1.0729e-5 Z" /></clipPath><clipPath
       id="clipPath156"
       clipPathUnits="userSpaceOnUse"><path
         style="clip-rule:evenodd"
         id="path154"
         d="M 1.0729e-5,0 H 720.00001 V 405 H 1.0729e-5 Z" /></clipPath><clipPath
       id="clipPath168"
       clipPathUnits="userSpaceOnUse"><path
         style="clip-rule:evenodd"
         id="path166"
         d="M 1.0729e-5,0 H 720.00001 V 405 H 1.0729e-5 Z" /></clipPath><clipPath
       id="clipPath180"
       clipPathUnits="userSpaceOnUse"><path
         style="clip-rule:evenodd"
         id="path178"
         d="M 1.0729e-5,0 H 720.00001 V 405 H 1.0729e-5 Z" /></clipPath><clipPath
       id="clipPath192"
       clipPathUnits="userSpaceOnUse"><path
         style="clip-rule:evenodd"
         id="path190"
         d="M 1.0729e-5,0 H 720.00001 V 405 H 1.0729e-5 Z" /></clipPath><clipPath
       id="clipPath210"
       clipPathUnits="userSpaceOnUse"><path
         style="clip-rule:evenodd"
         id="path208"
         d="M 1.0729e-5,0 H 720.00001 V 405 H 1.0729e-5 Z" /></clipPath><clipPath
       id="clipPath232"
       clipPathUnits="userSpaceOnUse"><path
         style="clip-rule:evenodd"
         id="path230"
         d="M 1.0729e-5,0 H 720.00001 V 405 H 1.0729e-5 Z" /></clipPath><clipPath
       id="clipPath244"
       clipPathUnits="userSpaceOnUse"><path
         style="clip-rule:evenodd"
         id="path242"
         d="M 1.0729e-5,0 H 720.00001 V 405 H 1.0729e-5 Z" /></clipPath><clipPath
       id="clipPath256"
       clipPathUnits="userSpaceOnUse"><path
         style="clip-rule:evenodd"
         id="path254"
         d="M 1.0729e-5,0 H 720.00001 V 405 H 1.0729e-5 Z" /></clipPath><clipPath
       id="clipPath268"
       clipPathUnits="userSpaceOnUse"><path
         style="clip-rule:evenodd"
         id="path266"
         d="M 1.0729e-5,0 H 720.00001 V 405 H 1.0729e-5 Z" /></clipPath><clipPath
       id="clipPath286"
       clipPathUnits="userSpaceOnUse"><path
         style="clip-rule:evenodd"
         id="path284"
         d="M 1.0729e-5,0 H 720.00001 V 405 H 1.0729e-5 Z" /></clipPath><clipPath
       id="clipPath298"
       clipPathUnits="userSpaceOnUse"><path
         style="clip-rule:evenodd"
         id="path296"
         d="M -1.2207e-4,405 H 720 V 0 L -6.1035e-5,3.0518e-5" /></clipPath></defs><g
     transform="matrix(1.3333333,0,0,-1.3333333,0,540)"
     id="g10"><path
       id="path22"
       style="fill:#ffffff;fill-opacity:1;fill-rule:evenodd;stroke:none"
       d="m 113.4,120.4 c 0,4.75 3.85,8.6 8.6,8.6 h 138.44 c 4.75,0 8.6,-3.85 8.6,-8.6 V 86 c 0,-4.75 -3.85,-8.6 -8.6,-8.6 H 122 c -4.75,0 -8.6,3.85 -8.6,8.6 z"
       inkscape:export-filename="/home/felipe/Downloads/knowledge-package-lifecycle.png"
       inkscape:export-xdpi="299.98465"
       inkscape:export-ydpi="299.98465" /><path
       id="path24"
       style="fill:none;stroke:#595959;stroke-width:0.72000003;stroke-linecap:butt;stroke-linejoin:round;stroke-miterlimit:10;stroke-dasharray:none;stroke-opacity:1"
       d="m 113.4,120.4 c 0,4.75 3.85,8.6 8.6,8.6 h 138.44 c 4.75,0 8.6,-3.85 8.6,-8.6 V 86 c 0,-4.75 -3.85,-8.6 -8.6,-8.6 H 122 c -4.75,0 -8.6,3.85 -8.6,8.6 z"
       inkscape:export-filename="/home/felipe/Downloads/knowledge-package-lifecycle.png"
       inkscape:export-xdpi="299.98465"
       inkscape:export-ydpi="299.98465" /><g
       id="g26"
       inkscape:export-filename="/home/felipe/Downloads/knowledge-package-lifecycle.png"
       inkscape:export-xdpi="299.98465"
       inkscape:export-ydpi="299.98465"><g
         clip-path="url(#clipPath32)"
         id="g28"><text
   id="text36"
   style="font-variant:normal;font-weight:bold;font-size:12.96000004px;font-family:Arial;-inkscape-font-specification:Arial-BoldMT;writing-mode:lr-tb;fill:#000000;fill-opacity:1;fill-rule:nonzero;stroke:none"
   transform="matrix(1,0,0,-1,171.12,98.328)"><tspan
     id="tspan34"
     y="0"
     x="0 9.3599997 14.40432 21.612961 28.8216 33.14016">Create</tspan></text>
</g></g><path
       id="path38"
       style="fill:#ffffff;fill-opacity:1;fill-rule:evenodd;stroke:none"
       d="m 294.72,268.72 c 0,4.75 3.85,8.6 8.6,8.6 h 152 c 4.75,0 8.6,-3.85 8.6,-8.6 v -34.4 c 0,-4.75 -3.85,-8.6 -8.6,-8.6 h -152 c -4.75,0 -8.6,3.85 -8.6,8.6 z"
       inkscape:export-filename="/home/felipe/Downloads/knowledge-package-lifecycle.png"
       inkscape:export-xdpi="299.98465"
       inkscape:export-ydpi="299.98465" /><path
       id="path40"
       style="fill:none;stroke:#595959;stroke-width:0.72000003;stroke-linecap:butt;stroke-linejoin:round;stroke-miterlimit:10;stroke-dasharray:none;stroke-opacity:1"
       d="m 294.72,268.72 c 0,4.75 3.85,8.6 8.6,8.6 h 152 c 4.75,0 8.6,-3.85 8.6,-8.6 v -34.4 c 0,-4.75 -3.85,-8.6 -8.6,-8.6 h -152 c -4.75,0 -8.6,3.85 -8.6,8.6 z"
       inkscape:export-filename="/home/felipe/Downloads/knowledge-package-lifecycle.png"
       inkscape:export-xdpi="299.98465"
       inkscape:export-ydpi="299.98465" /><g
       id="g42"
       inkscape:export-filename="/home/felipe/Downloads/knowledge-package-lifecycle.png"
       inkscape:export-xdpi="299.98465"
       inkscape:export-ydpi="299.98465"><g
         clip-path="url(#clipPath48)"
         id="g44"><text
   id="text52"
   style="font-variant:normal;font-weight:bold;font-size:12.96000004px;font-family:Arial;-inkscape-font-specification:Arial-BoldMT;writing-mode:lr-tb;fill:#000000;fill-opacity:1;fill-rule:nonzero;stroke:none"
   transform="matrix(1,0,0,-1,367.15,252.65)"><tspan
     id="tspan50"
     y="0"
     x="0 8.6400003 16.554239 20.1528">Edit</tspan></text>
</g></g><g
       id="g54"
       inkscape:export-filename="/home/felipe/Downloads/knowledge-package-lifecycle.png"
       inkscape:export-xdpi="299.98465"
       inkscape:export-ydpi="299.98465"><g
         clip-path="url(#clipPath60)"
         id="g56"><text
   id="text64"
   style="font-variant:normal;font-weight:normal;font-size:9.96000004px;font-family:ArialMT;-inkscape-font-specification:ArialMT;writing-mode:lr-tb;fill:#000000;fill-opacity:1;fill-rule:nonzero;stroke:none"
   transform="matrix(1,0,0,-1,309.07,239.93)"><tspan
     id="tspan62"
     y="0"
     x="0 3.34656 9.4520397 11.61336 13.77468 19.312441 24.322321 27.0912 29.94972 38.455559 43.99332 46.762199 52.26012 57.797878 63.295799 66.064682 71.60244 74.092438 79.630203 85.12812">(Files, metadata and</tspan></text>
</g></g><g
       id="g66"
       inkscape:export-filename="/home/felipe/Downloads/knowledge-package-lifecycle.png"
       inkscape:export-xdpi="299.98465"
       inkscape:export-ydpi="299.98465"><g
         clip-path="url(#clipPath72)"
         id="g68"><text
   id="text76"
   style="font-variant:normal;font-weight:normal;font-size:9.96000004px;font-family:ArialMT;-inkscape-font-specification:ArialMT;writing-mode:lr-tb;fill:#000000;fill-opacity:1;fill-rule:nonzero;stroke:none"
   transform="matrix(1,0,0,-1,402.43,239.93)"><tspan
     id="tspan74"
     y="0"
     x="0 3.34656 8.8843203 13.8942 19.431959 24.92988 28.27644 33.30624 38.844002 43.853882">resources)</tspan></text>
</g></g><path
       id="path78"
       style="fill:#595959;fill-opacity:1;fill-rule:nonzero;stroke:none"
       d="m 223.32,252.14 66.38,-0.12 v -1 l -66.38,0.12 z m 65.38,2.38 6,-3.01 -6.01,-2.99 z"
       inkscape:export-filename="/home/felipe/Downloads/knowledge-package-lifecycle.png"
       inkscape:export-xdpi="299.98465"
       inkscape:export-ydpi="299.98465" /><path
       id="path80"
       style="fill:#f3f3f3;fill-opacity:1;fill-rule:evenodd;stroke:none"
       d="m 171.72,219.36 h 38.7 v 38.7 h -38.7 z"
       inkscape:export-filename="/home/felipe/Downloads/knowledge-package-lifecycle.png"
       inkscape:export-xdpi="299.98465"
       inkscape:export-ydpi="299.98465" /><path
       id="path82"
       style="fill:#c3c3c3;fill-opacity:1;fill-rule:evenodd;stroke:none"
       d="m 210.42,258.06 12.9,12.9 v -38.7 l -12.9,-12.9 z"
       inkscape:export-filename="/home/felipe/Downloads/knowledge-package-lifecycle.png"
       inkscape:export-xdpi="299.98465"
       inkscape:export-ydpi="299.98465" /><path
       id="path84"
       style="fill:#f5f5f5;fill-opacity:1;fill-rule:evenodd;stroke:none"
       d="m 171.72,258.06 12.9,12.9 h 38.7 l -12.9,-12.9 z"
       inkscape:export-filename="/home/felipe/Downloads/knowledge-package-lifecycle.png"
       inkscape:export-xdpi="299.98465"
       inkscape:export-ydpi="299.98465" /><g
       id="g86"
       inkscape:export-filename="/home/felipe/Downloads/knowledge-package-lifecycle.png"
       inkscape:export-xdpi="299.98465"
       inkscape:export-ydpi="299.98465"><path
         id="path88"
         style="fill:none;stroke:#595959;stroke-width:0.72000003;stroke-linecap:butt;stroke-linejoin:miter;stroke-miterlimit:8;stroke-dasharray:2.88, 2.16;stroke-dashoffset:0;stroke-opacity:1"
         d="m 171.72,258.06 12.9,12.9 h 38.7 v -38.7 l -12.9,-12.9 h -38.7 z m 0,0 h 38.7 l 12.9,12.9 m -12.9,-12.9 v -38.7" /></g><g
       id="g90"
       inkscape:export-filename="/home/felipe/Downloads/knowledge-package-lifecycle.png"
       inkscape:export-xdpi="299.98465"
       inkscape:export-ydpi="299.98465"><g
         clip-path="url(#clipPath96)"
         id="g92"><text
   id="text100"
   style="font-style:italic;font-variant:normal;font-weight:normal;font-size:11.03999996px;font-family:Arial;-inkscape-font-specification:Arial-ItalicMT;writing-mode:lr-tb;fill:#000000;fill-opacity:1;fill-rule:nonzero;stroke:none"
   transform="matrix(1,0,0,-1,141,206.14)"><tspan
     id="tspan98"
     y="0"
     x="0 7.31952 13.45776 19.56288 27.588961 29.98464 36.122879 42.228001 48.366241 54.471359 57.584641 64.90416 71.042397 76.562401 82.082397 88.187523 94.32576">Knowledge Package</tspan></text>
</g></g><g
       id="g102"
       inkscape:export-filename="/home/felipe/Downloads/knowledge-package-lifecycle.png"
       inkscape:export-xdpi="299.98465"
       inkscape:export-ydpi="299.98465"><g
         clip-path="url(#clipPath108)"
         id="g104"><text
   id="text112"
   style="font-variant:normal;font-weight:normal;font-size:11.03999996px;font-family:ArialMT;-inkscape-font-specification:ArialMT;writing-mode:lr-tb;fill:#000000;fill-opacity:1;fill-rule:nonzero;stroke:none"
   transform="matrix(1,0,0,-1,174.6,192.94)"><tspan
     id="tspan110"
     y="0"
     x="0">(</tspan></text>
</g></g><g
       id="g114"
       inkscape:export-filename="/home/felipe/Downloads/knowledge-package-lifecycle.png"
       inkscape:export-xdpi="299.98465"
       inkscape:export-ydpi="299.98465"><g
         clip-path="url(#clipPath120)"
         id="g116"><text
   id="text124"
   style="font-variant:normal;font-weight:bold;font-size:11.03999996px;font-family:Arial;-inkscape-font-specification:Arial-BoldMT;writing-mode:lr-tb;fill:#000000;fill-opacity:1;fill-rule:nonzero;stroke:none"
   transform="matrix(1,0,0,-1,178.32,192.94)"><tspan
     id="tspan122"
     y="0"
     x="0 7.9156799 12.21024 18.34848 22.06896">Draft</tspan></text>
</g></g><g
       id="g126"
       inkscape:export-filename="/home/felipe/Downloads/knowledge-package-lifecycle.png"
       inkscape:export-xdpi="299.98465"
       inkscape:export-ydpi="299.98465"><g
         clip-path="url(#clipPath132)"
         id="g128"><text
   id="text136"
   style="font-variant:normal;font-weight:normal;font-size:11.03999996px;font-family:ArialMT;-inkscape-font-specification:ArialMT;writing-mode:lr-tb;fill:#000000;fill-opacity:1;fill-rule:nonzero;stroke:none"
   transform="matrix(1,0,0,-1,204.12,192.94)"><tspan
     id="tspan134"
     y="0"
     x="0">)</tspan></text>
</g></g><path
       id="path138"
       style="fill:#595959;fill-opacity:1;fill-rule:nonzero;stroke:none"
       d="m 190.78,129 v 52.12 h 1 V 129 Z m -2.5,51.12 3,6 3,-6 z"
       inkscape:export-filename="/home/felipe/Downloads/knowledge-package-lifecycle.png"
       inkscape:export-xdpi="299.98465"
       inkscape:export-ydpi="299.98465" /><path
       id="path140"
       style="fill:#f3f3f3;fill-opacity:1;fill-rule:evenodd;stroke:none"
       d="m 347.4,82.92 h 38.7 v 38.7 h -38.7 z"
       inkscape:export-filename="/home/felipe/Downloads/knowledge-package-lifecycle.png"
       inkscape:export-xdpi="299.98465"
       inkscape:export-ydpi="299.98465" /><path
       id="path142"
       style="fill:#c3c3c3;fill-opacity:1;fill-rule:evenodd;stroke:none"
       d="m 386.1,121.62 12.9,12.9 v -38.7 l -12.9,-12.9 z"
       inkscape:export-filename="/home/felipe/Downloads/knowledge-package-lifecycle.png"
       inkscape:export-xdpi="299.98465"
       inkscape:export-ydpi="299.98465" /><path
       id="path144"
       style="fill:#f5f5f5;fill-opacity:1;fill-rule:evenodd;stroke:none"
       d="m 347.4,121.62 12.9,12.9 H 399 l -12.9,-12.9 z"
       inkscape:export-filename="/home/felipe/Downloads/knowledge-package-lifecycle.png"
       inkscape:export-xdpi="299.98465"
       inkscape:export-ydpi="299.98465" /><g
       id="g146"
       inkscape:export-filename="/home/felipe/Downloads/knowledge-package-lifecycle.png"
       inkscape:export-xdpi="299.98465"
       inkscape:export-ydpi="299.98465"><path
         id="path148"
         style="fill:none;stroke:#595959;stroke-width:0.72000003;stroke-linecap:butt;stroke-linejoin:miter;stroke-miterlimit:8;stroke-dasharray:2.88, 2.16;stroke-dashoffset:0;stroke-opacity:1"
         d="m 347.4,121.62 12.9,12.9 H 399 v -38.7 l -12.9,-12.9 h -38.7 z m 0,0 h 38.7 l 12.9,12.9 m -12.9,-12.9 v -38.7" /></g><g
       id="g150"
       inkscape:export-filename="/home/felipe/Downloads/knowledge-package-lifecycle.png"
       inkscape:export-xdpi="299.98465"
       inkscape:export-ydpi="299.98465"><g
         clip-path="url(#clipPath156)"
         id="g152"><text
   id="text160"
   style="font-style:italic;font-variant:normal;font-weight:normal;font-size:11.03999996px;font-family:Arial;-inkscape-font-specification:Arial-ItalicMT;writing-mode:lr-tb;fill:#000000;fill-opacity:1;fill-rule:nonzero;stroke:none"
   transform="matrix(1,0,0,-1,316.75,68.76)"><tspan
     id="tspan158"
     y="0"
     x="0 7.3636799 13.50192 19.64016 27.68832 30.084 36.22224 42.360481 48.498718 54.636959 57.77232 65.136002 71.274239 76.794243 82.336319 88.474564 94.612801">Knowledge Package</tspan></text>
</g></g><g
       id="g162"
       inkscape:export-filename="/home/felipe/Downloads/knowledge-package-lifecycle.png"
       inkscape:export-xdpi="299.98465"
       inkscape:export-ydpi="299.98465"><g
         clip-path="url(#clipPath168)"
         id="g164"><text
   id="text172"
   style="font-variant:normal;font-weight:normal;font-size:11.03999996px;font-family:ArialMT;-inkscape-font-specification:ArialMT;writing-mode:lr-tb;fill:#000000;fill-opacity:1;fill-rule:nonzero;stroke:none"
   transform="matrix(1,0,0,-1,350.38,55.56)"><tspan
     id="tspan170"
     y="0"
     x="0">(</tspan></text>
</g></g><g
       id="g174"
       inkscape:export-filename="/home/felipe/Downloads/knowledge-package-lifecycle.png"
       inkscape:export-xdpi="299.98465"
       inkscape:export-ydpi="299.98465"><g
         clip-path="url(#clipPath180)"
         id="g176"><text
   id="text184"
   style="font-variant:normal;font-weight:bold;font-size:11.03999996px;font-family:Arial;-inkscape-font-specification:Arial-BoldMT;writing-mode:lr-tb;fill:#000000;fill-opacity:1;fill-rule:nonzero;stroke:none"
   transform="matrix(1,0,0,-1,354.1,55.56)"><tspan
     id="tspan182"
     y="0"
     x="0 7.9156799 12.21024 18.34848 22.06896">Draft</tspan></text>
</g></g><g
       id="g186"
       inkscape:export-filename="/home/felipe/Downloads/knowledge-package-lifecycle.png"
       inkscape:export-xdpi="299.98465"
       inkscape:export-ydpi="299.98465"><g
         clip-path="url(#clipPath192)"
         id="g188"><text
   id="text196"
   style="font-variant:normal;font-weight:normal;font-size:11.03999996px;font-family:ArialMT;-inkscape-font-specification:ArialMT;writing-mode:lr-tb;fill:#000000;fill-opacity:1;fill-rule:nonzero;stroke:none"
   transform="matrix(1,0,0,-1,379.9,55.56)"><tspan
     id="tspan194"
     y="0"
     x="0">)</tspan></text>
</g></g><path
       id="path198"
       style="fill:#595959;fill-opacity:1;fill-rule:nonzero;stroke:none"
       d="m 379.82,225.72 0.34,-86.14 h -1 l -0.34,86.14 z m 2.84,-85.13 -2.98,-6.01 -3.02,5.99 z"
       inkscape:export-filename="/home/felipe/Downloads/knowledge-package-lifecycle.png"
       inkscape:export-xdpi="299.98465"
       inkscape:export-ydpi="299.98465" /><path
       id="path200"
       style="fill:#ffffff;fill-opacity:1;fill-rule:evenodd;stroke:none"
       d="m 464.88,119.92 c 0,4.75 3.85,8.6 8.6,8.6 h 138.44 c 4.75,0 8.6,-3.85 8.6,-8.6 v -34.4 c 0,-4.75 -3.85,-8.6 -8.6,-8.6 H 473.48 c -4.75,0 -8.6,3.85 -8.6,8.6 z"
       inkscape:export-filename="/home/felipe/Downloads/knowledge-package-lifecycle.png"
       inkscape:export-xdpi="299.98465"
       inkscape:export-ydpi="299.98465" /><path
       id="path202"
       style="fill:none;stroke:#595959;stroke-width:0.72000003;stroke-linecap:butt;stroke-linejoin:round;stroke-miterlimit:10;stroke-dasharray:none;stroke-opacity:1"
       d="m 464.88,119.92 c 0,4.75 3.85,8.6 8.6,8.6 h 138.44 c 4.75,0 8.6,-3.85 8.6,-8.6 v -34.4 c 0,-4.75 -3.85,-8.6 -8.6,-8.6 H 473.48 c -4.75,0 -8.6,3.85 -8.6,8.6 z"
       inkscape:export-filename="/home/felipe/Downloads/knowledge-package-lifecycle.png"
       inkscape:export-xdpi="299.98465"
       inkscape:export-ydpi="299.98465" /><g
       id="g204"
       inkscape:export-filename="/home/felipe/Downloads/knowledge-package-lifecycle.png"
       inkscape:export-xdpi="299.98465"
       inkscape:export-ydpi="299.98465"><g
         clip-path="url(#clipPath210)"
         id="g206"><text
   id="text214"
   style="font-variant:normal;font-weight:bold;font-size:12px;font-family:Arial;-inkscape-font-specification:Arial-BoldMT;writing-mode:lr-tb;fill:#000000;fill-opacity:1;fill-rule:nonzero;stroke:none"
   transform="matrix(1,0,0,-1,521.09,98.208)"><tspan
     id="tspan212"
     y="0"
     x="0 8.0279999 15.36 22.691999 26.028 29.364 36.096001">Publish</tspan></text>
</g></g><path
       id="path216"
       style="fill:#595959;fill-opacity:1;fill-rule:nonzero;stroke:none"
       d="m 386.16,101.75 73.78,0.44 v 1 l -73.78,-0.44 z m 72.8,-2.066 5.98,3.036 -6.02,2.96 z"
       inkscape:export-filename="/home/felipe/Downloads/knowledge-package-lifecycle.png"
       inkscape:export-xdpi="299.98465"
       inkscape:export-ydpi="299.98465" /><path
       id="path218"
       style="fill:#f3f3f3;fill-opacity:1;fill-rule:evenodd;stroke:none"
       d="m 516.96,219.84 h 38.7 v 38.7 h -38.7 z"
       inkscape:export-filename="/home/felipe/Downloads/knowledge-package-lifecycle.png"
       inkscape:export-xdpi="299.98465"
       inkscape:export-ydpi="299.98465" /><path
       id="path220"
       style="fill:#c3c3c3;fill-opacity:1;fill-rule:evenodd;stroke:none"
       d="m 555.66,258.54 12.9,12.9 v -38.7 l -12.9,-12.9 z"
       inkscape:export-filename="/home/felipe/Downloads/knowledge-package-lifecycle.png"
       inkscape:export-xdpi="299.98465"
       inkscape:export-ydpi="299.98465" /><path
       id="path222"
       style="fill:#f5f5f5;fill-opacity:1;fill-rule:evenodd;stroke:none"
       d="m 516.96,258.54 12.9,12.9 h 38.7 l -12.9,-12.9 z"
       inkscape:export-filename="/home/felipe/Downloads/knowledge-package-lifecycle.png"
       inkscape:export-xdpi="299.98465"
       inkscape:export-ydpi="299.98465" /><path
       id="path224"
       style="fill:none;stroke:#595959;stroke-width:0.72000003;stroke-linecap:butt;stroke-linejoin:miter;stroke-miterlimit:8;stroke-dasharray:none;stroke-opacity:1"
       d="m 516.96,258.54 12.9,12.9 h 38.7 v -38.7 l -12.9,-12.9 h -38.7 z m 0,0 h 38.7 l 12.9,12.9 m -12.9,-12.9 v -38.7"
       inkscape:export-filename="/home/felipe/Downloads/knowledge-package-lifecycle.png"
       inkscape:export-xdpi="299.98465"
       inkscape:export-ydpi="299.98465" /><g
       id="g226"
       inkscape:export-filename="/home/felipe/Downloads/knowledge-package-lifecycle.png"
       inkscape:export-xdpi="299.98465"
       inkscape:export-ydpi="299.98465"><g
         clip-path="url(#clipPath232)"
         id="g228"><text
   id="text236"
   style="font-style:italic;font-variant:normal;font-weight:normal;font-size:11.03999996px;font-family:Arial;-inkscape-font-specification:Arial-ItalicMT;writing-mode:lr-tb;fill:#000000;fill-opacity:1;fill-rule:nonzero;stroke:none"
   transform="matrix(1,0,0,-1,492.53,205.7)"><tspan
     id="tspan234"
     y="0"
     x="0 7.31952 13.45776 19.56288 27.588961 29.98464 36.122879 42.228001 48.366241 54.471359 57.584641 64.90416 71.042397 76.562401 82.082397 88.187523 94.32576">Knowledge Package</tspan></text>
</g></g><g
       id="g238"
       inkscape:export-filename="/home/felipe/Downloads/knowledge-package-lifecycle.png"
       inkscape:export-xdpi="299.98465"
       inkscape:export-ydpi="299.98465"><g
         clip-path="url(#clipPath244)"
         id="g240"><text
   id="text248"
   style="font-variant:normal;font-weight:normal;font-size:11.06400013px;font-family:ArialMT;-inkscape-font-specification:ArialMT;writing-mode:lr-tb;fill:#000000;fill-opacity:1;fill-rule:nonzero;stroke:none"
   transform="matrix(1,0,0,-1,512.69,192.5)"><tspan
     id="tspan246"
     y="0"
     x="0">(</tspan></text>
</g></g><g
       id="g250"
       inkscape:export-filename="/home/felipe/Downloads/knowledge-package-lifecycle.png"
       inkscape:export-xdpi="299.98465"
       inkscape:export-ydpi="299.98465"><g
         clip-path="url(#clipPath256)"
         id="g252"><text
   id="text260"
   style="font-variant:normal;font-weight:bold;font-size:11.06400013px;font-family:Arial;-inkscape-font-specification:Arial-BoldMT;writing-mode:lr-tb;fill:#000000;fill-opacity:1;fill-rule:nonzero;stroke:none"
   transform="matrix(1,0,0,-1,516.41,192.5)"><tspan
     id="tspan258"
     y="0"
     x="0 7.324368 14.040216 20.756063 23.865047 26.974031 33.125614 39.819336 45.970921">Published</tspan></text>
</g></g><g
       id="g262"
       inkscape:export-filename="/home/felipe/Downloads/knowledge-package-lifecycle.png"
       inkscape:export-xdpi="299.98465"
       inkscape:export-ydpi="299.98465"><g
         clip-path="url(#clipPath268)"
         id="g264"><text
   id="text272"
   style="font-variant:normal;font-weight:normal;font-size:11.06400013px;font-family:ArialMT;-inkscape-font-specification:ArialMT;writing-mode:lr-tb;fill:#000000;fill-opacity:1;fill-rule:nonzero;stroke:none"
   transform="matrix(1,0,0,-1,569.09,192.5)"><tspan
     id="tspan270"
     y="0"
     x="0">)</tspan></text>
</g></g><path
       id="path274"
       style="fill:#595959;fill-opacity:1;fill-rule:nonzero;stroke:none"
       d="m 542.26,128.62 v 52.14 h 1 v -52.14 z m -2.5,51.14 3,6 3,-6 z"
       inkscape:export-filename="/home/felipe/Downloads/knowledge-package-lifecycle.png"
       inkscape:export-xdpi="299.98465"
       inkscape:export-ydpi="299.98465" /><path
       id="path276"
       style="fill:#ffffff;fill-opacity:1;fill-rule:evenodd;stroke:none"
       d="m 301.56,347.56 c 0,4.75 3.85,8.6 8.6,8.6 H 448.6 c 4.75,0 8.6,-3.85 8.6,-8.6 v -34.4 c 0,-4.75 -3.85,-8.6 -8.6,-8.6 H 310.16 c -4.75,0 -8.6,3.85 -8.6,8.6 z"
       inkscape:export-filename="/home/felipe/Downloads/knowledge-package-lifecycle.png"
       inkscape:export-xdpi="299.98465"
       inkscape:export-ydpi="299.98465" /><path
       id="path278"
       style="fill:none;stroke:#595959;stroke-width:0.72000003;stroke-linecap:butt;stroke-linejoin:round;stroke-miterlimit:8;stroke-dasharray:none;stroke-opacity:1"
       d="m 301.56,347.56 c 0,4.75 3.85,8.6 8.6,8.6 H 448.6 c 4.75,0 8.6,-3.85 8.6,-8.6 v -34.4 c 0,-4.75 -3.85,-8.6 -8.6,-8.6 H 310.16 c -4.75,0 -8.6,3.85 -8.6,8.6 z"
       inkscape:export-filename="/home/felipe/Downloads/knowledge-package-lifecycle.png"
       inkscape:export-xdpi="299.98465"
       inkscape:export-ydpi="299.98465" /><g
       id="g280"
       inkscape:export-filename="/home/felipe/Downloads/knowledge-package-lifecycle.png"
       inkscape:export-xdpi="299.98465"
       inkscape:export-ydpi="299.98465"><g
         clip-path="url(#clipPath286)"
         id="g282"><text
   id="text290"
   style="font-variant:normal;font-weight:bold;font-size:12.98400021px;font-family:Arial;-inkscape-font-specification:Arial-BoldMT;writing-mode:lr-tb;fill:#000000;fill-opacity:1;fill-rule:nonzero;stroke:none"
   transform="matrix(1,0,0,-1,341.21,325.56)"><tspan
     id="tspan288"
     y="0"
     x="0 9.3744478 16.593552 26.863895 30.343609 37.303032 44.522137 49.57291 56.740082 60.349632 68.28286">New version</tspan></text>
</g></g><g
       id="g292"
       inkscape:export-filename="/home/felipe/Downloads/knowledge-package-lifecycle.png"
       inkscape:export-xdpi="299.98465"
       inkscape:export-ydpi="299.98465"><g
         clip-path="url(#clipPath298)"
         id="g294"><path
           id="path300"
           style="fill:#595959;fill-opacity:1;fill-rule:nonzero;stroke:none"
           d="m 549.75,271.43 -0.03,1.38 -0.1,1.41 -0.17,1.4 -0.23,1.4 -0.29,1.39 -0.37,1.4 -0.42,1.38 -0.48,1.39 -0.54,1.37 -0.6,1.37 -0.66,1.36 -0.72,1.35 -0.76,1.34 -0.83,1.34 -0.87,1.32 -0.93,1.32 -0.98,1.3 -1.02,1.29 -1.08,1.28 -1.12,1.26 -1.18,1.25 -1.2,1.23 -2.57,2.42 -2.72,2.35 -2.89,2.29 -3.05,2.21 -3.18,2.13 -3.31,2.03 -3.45,1.95 -3.57,1.85 -3.67,1.74 -3.78,1.64 -3.86,1.52 -3.95,1.4 -4.03,1.28 -4.1,1.15 -4.15,1.02 -4.21,0.86 -4.24,0.73 -4.29,0.58 -4.31,0.41 -3.65,0.19 -0.05,-1 3.61,-0.19 4.27,-0.41 4.25,-0.56 4.21,-0.73 4.18,-0.86 4.11,-1 4.07,-1.14 3.99,-1.27 3.92,-1.39 3.84,-1.51 3.75,-1.62 3.63,-1.73 3.53,-1.83 3.42,-1.93 3.29,-2.02 3.15,-2.1 3.01,-2.18 2.86,-2.26 2.69,-2.33 2.53,-2.39 1.2,-1.22 1.15,-1.23 1.11,-1.24 1.05,-1.25 1.02,-1.28 0.95,-1.27 0.92,-1.29 0.85,-1.3 0.81,-1.3 0.75,-1.32 0.7,-1.32 0.64,-1.32 0.59,-1.33 0.52,-1.34 0.48,-1.35 0.4,-1.34 0.36,-1.35 0.29,-1.35 0.22,-1.36 0.16,-1.36 0.11,-1.35 0.03,-1.38 z m -86.49,61.75 -6.09,-2.82 5.91,-3.18 z" /></g></g><path
       id="path302"
       style="fill:#595959;fill-opacity:1;fill-rule:nonzero;stroke:none"
       d="m 301.53,330.86 -4.57,-0.08 -4.59,-0.26 -4.55,-0.42 -4.54,-0.58 -4.5,-0.73 -4.45,-0.88 -4.4,-1.02 -4.33,-1.15 -4.27,-1.29 -4.18,-1.41 -4.1,-1.53 -3.99,-1.65 -3.9,-1.76 -3.77,-1.86 -3.64,-1.95 -3.52,-2.06 -3.37,-2.14 -3.23,-2.22 -3.05,-2.3 -2.9,-2.37 -1.38,-1.22 -1.33,-1.23 -1.28,-1.24 -1.24,-1.26 -1.2,-1.27 -1.14,-1.28 -1.08,-1.31 -1.04,-1.3 -0.98,-1.33 -0.93,-1.33 -0.87,-1.34 -0.82,-1.36 -0.75,-1.35 -0.7,-1.38 -0.63,-1.38 -0.58,-1.38 -0.51,-1.4 -0.45,-1.39 -0.38,-1.41 -0.34,-2.02 0.99,-0.16 0.31,1.92 0.37,1.37 0.44,1.35 0.49,1.35 0.56,1.35 0.62,1.35 0.68,1.34 0.74,1.33 0.79,1.33 0.86,1.31 0.91,1.31 0.97,1.3 1.02,1.29 1.06,1.27 1.12,1.27 1.18,1.25 1.22,1.24 1.27,1.22 1.32,1.22 1.35,1.2 2.86,2.34 3.02,2.27 3.2,2.21 3.33,2.12 3.49,2.03 3.61,1.95 3.75,1.84 3.86,1.74 3.97,1.64 4.06,1.52 4.15,1.4 4.23,1.28 4.31,1.15 4.36,1.01 4.43,0.87 4.46,0.73 4.5,0.57 4.52,0.42 4.55,0.26 4.57,0.08 z m -99.86,-53.6 2.33,-6.29 3.63,5.64 z"
       inkscape:export-filename="/home/felipe/Downloads/knowledge-package-lifecycle.png"
       inkscape:export-xdpi="299.98465"
       inkscape:export-ydpi="299.98465" /></g></svg>
