<?xml version="1.0" encoding="UTF-8" standalone="no"?>
<svg
   viewBox="0 0 960 540"
   height="540"
   width="960"
   xml:space="preserve"
   id="svg2"
   version="1.1"
   sodipodi:docname="Lifecycle.svg"
   inkscape:version="1.1.2 (0a00cf5339, 2022-02-04)"
   xmlns:inkscape="http://www.inkscape.org/namespaces/inkscape"
   xmlns:sodipodi="http://sodipodi.sourceforge.net/DTD/sodipodi-0.dtd"
   xmlns="http://www.w3.org/2000/svg"
   xmlns:svg="http://www.w3.org/2000/svg"
   xmlns:rdf="http://www.w3.org/1999/02/22-rdf-syntax-ns#"
   xmlns:cc="http://creativecommons.org/ns#"
   xmlns:dc="http://purl.org/dc/elements/1.1/"><sodipodi:namedview
     id="namedview190"
     pagecolor="#ffffff"
     bordercolor="#666666"
     borderopacity="1.0"
     inkscape:pageshadow="2"
     inkscape:pageopacity="0.0"
     inkscape:pagecheckerboard="0"
     showgrid="false"
     inkscape:zoom="0.8315052"
     inkscape:cx="515.33051"
     inkscape:cy="296.45034"
     inkscape:window-width="1600"
     inkscape:window-height="810"
     inkscape:window-x="0"
     inkscape:window-y="28"
     inkscape:window-maximized="1"
     inkscape:current-layer="svg2" /><metadata
     id="metadata8"><rdf:RDF><cc:Work
         rdf:about=""><dc:format>image/svg+xml</dc:format><dc:type
           rdf:resource="http://purl.org/dc/dcmitype/StillImage" /></cc:Work></rdf:RDF></metadata><defs
     id="defs6"><clipPath
       id="clipPath18"
       clipPathUnits="userSpaceOnUse"><path
         style="clip-rule:evenodd"
         id="path16"
         d="M 0,9.1553e-5 H 720 V 405.00009 H 0 Z" /></clipPath><clipPath
       id="clipPath32"
       clipPathUnits="userSpaceOnUse"><path
         style="clip-rule:evenodd"
         id="path30"
         d="M 1.0729e-5,0 H 720.00001 V 405 H 1.0729e-5 Z" /></clipPath><clipPath
       id="clipPath48"
       clipPathUnits="userSpaceOnUse"><path
         style="clip-rule:evenodd"
         id="path46"
         d="M 1.0729e-5,0 H 720.00001 V 405 H 1.0729e-5 Z" /></clipPath><clipPath
       id="clipPath60"
       clipPathUnits="userSpaceOnUse"><path
         style="clip-rule:evenodd"
         id="path58"
         d="M 1.0729e-5,0 H 720.00001 V 405 H 1.0729e-5 Z" /></clipPath><clipPath
       id="clipPath72"
       clipPathUnits="userSpaceOnUse"><path
         style="clip-rule:evenodd"
         id="path70"
         d="M 1.0729e-5,0 H 720.00001 V 405 H 1.0729e-5 Z" /></clipPath><clipPath
       id="clipPath96"
       clipPathUnits="userSpaceOnUse"><path
         style="clip-rule:evenodd"
         id="path94"
         d="M 1.0729e-5,0 H 720.00001 V 405 H 1.0729e-5 Z" /></clipPath><clipPath
       id="clipPath108"
       clipPathUnits="userSpaceOnUse"><path
         style="clip-rule:evenodd"
         id="path106"
         d="M 1.0729e-5,0 H 720.00001 V 405 H 1.0729e-5 Z" /></clipPath><clipPath
       id="clipPath120"
       clipPathUnits="userSpaceOnUse"><path
         style="clip-rule:evenodd"
         id="path118"
         d="M 1.0729e-5,0 H 720.00001 V 405 H 1.0729e-5 Z" /></clipPath><clipPath
       id="clipPath132"
       clipPathUnits="userSpaceOnUse"><path
         style="clip-rule:evenodd"
         id="path130"
         d="M 1.0729e-5,0 H 720.00001 V 405 H 1.0729e-5 Z" /></clipPath><clipPath
       id="clipPath156"
       clipPathUnits="userSpaceOnUse"><path
         style="clip-rule:evenodd"
         id="path154"
         d="M 1.0729e-5,0 H 720.00001 V 405 H 1.0729e-5 Z" /></clipPath><clipPath
       id="clipPath168"
       clipPathUnits="userSpaceOnUse"><path
         style="clip-rule:evenodd"
         id="path166"
         d="M 1.0729e-5,0 H 720.00001 V 405 H 1.0729e-5 Z" /></clipPath><clipPath
       id="clipPath180"
       clipPathUnits="userSpaceOnUse"><path
         style="clip-rule:evenodd"
         id="path178"
         d="M 1.0729e-5,0 H 720.00001 V 405 H 1.0729e-5 Z" /></clipPath><clipPath
       id="clipPath192"
       clipPathUnits="userSpaceOnUse"><path
         style="clip-rule:evenodd"
         id="path190"
         d="M 1.0729e-5,0 H 720.00001 V 405 H 1.0729e-5 Z" /></clipPath><clipPath
       id="clipPath210"
       clipPathUnits="userSpaceOnUse"><path
         style="clip-rule:evenodd"
         id="path208"
         d="M 1.0729e-5,0 H 720.00001 V 405 H 1.0729e-5 Z" /></clipPath><clipPath
       id="clipPath230"
       clipPathUnits="userSpaceOnUse"><path
         style="clip-rule:evenodd"
         id="path228"
         d="M 1.0729e-5,0 H 720.00001 V 405 H 1.0729e-5 Z" /></clipPath><clipPath
       id="clipPath242"
       clipPathUnits="userSpaceOnUse"><path
         style="clip-rule:evenodd"
         id="path240"
         d="M 1.0729e-5,0 H 720.00001 V 405 H 1.0729e-5 Z" /></clipPath><clipPath
       id="clipPath254"
       clipPathUnits="userSpaceOnUse"><path
         style="clip-rule:evenodd"
         id="path252"
         d="M 1.0729e-5,0 H 720.00001 V 405 H 1.0729e-5 Z" /></clipPath><clipPath
       id="clipPath266"
       clipPathUnits="userSpaceOnUse"><path
         style="clip-rule:evenodd"
         id="path264"
         d="M 1.0729e-5,0 H 720.00001 V 405 H 1.0729e-5 Z" /></clipPath><clipPath
       id="clipPath284"
       clipPathUnits="userSpaceOnUse"><path
         style="clip-rule:evenodd"
         id="path282"
         d="M 1.0729e-5,0 H 720.00001 V 405 H 1.0729e-5 Z" /></clipPath><clipPath
       id="clipPath296"
       clipPathUnits="userSpaceOnUse"><path
         style="clip-rule:evenodd"
         id="path294"
         d="M -1.8311e-4,405 H 720 V 0 L -1.2207e-4,3.0518e-5" /></clipPath><clipPath
       id="clipPath312"
       clipPathUnits="userSpaceOnUse"><path
         style="clip-rule:evenodd"
         id="path310"
         d="M 1.0729e-5,0 H 720.00001 V 405 H 1.0729e-5 Z" /></clipPath><clipPath
       id="clipPath334"
       clipPathUnits="userSpaceOnUse"><path
         style="clip-rule:evenodd"
         id="path332"
         d="M 1.0729e-5,0 H 720.00001 V 405 H 1.0729e-5 Z" /></clipPath><clipPath
       id="clipPath346"
       clipPathUnits="userSpaceOnUse"><path
         style="clip-rule:evenodd"
         id="path344"
         d="M 1.0729e-5,0 H 720.00001 V 405 H 1.0729e-5 Z" /></clipPath><clipPath
       id="clipPath358"
       clipPathUnits="userSpaceOnUse"><path
         style="clip-rule:evenodd"
         id="path356"
         d="M 1.0729e-5,0 H 720.00001 V 405 H 1.0729e-5 Z" /></clipPath><clipPath
       id="clipPath370"
       clipPathUnits="userSpaceOnUse"><path
         style="clip-rule:evenodd"
         id="path368"
         d="M 1.0729e-5,0 H 720.00001 V 405 H 1.0729e-5 Z" /></clipPath></defs><g
     transform="matrix(1.3333333,0,0,-1.3333333,0,540)"
     id="g10"
     inkscape:export-filename="/home/felipe/Downloads/g10.png"
     inkscape:export-xdpi="300"
     inkscape:export-ydpi="300"><path
       id="path22"
       style="fill:#ffffff;fill-opacity:1;fill-rule:evenodd;stroke:none"
       d="m 113.4,179.18 c 0,4.76 3.86,8.62 8.62,8.62 h 138.4 c 4.76,0 8.62,-3.86 8.62,-8.62 V 144.7 c 0,-4.76 -3.86,-8.62 -8.62,-8.62 h -138.4 c -4.76,0 -8.62,3.86 -8.62,8.62 z" /><path
       id="path24"
       style="fill:none;stroke:#595959;stroke-width:0.72000003;stroke-linecap:butt;stroke-linejoin:round;stroke-miterlimit:10;stroke-dasharray:none;stroke-opacity:1"
       d="m 113.4,179.18 c 0,4.76 3.86,8.62 8.62,8.62 h 138.4 c 4.76,0 8.62,-3.86 8.62,-8.62 V 144.7 c 0,-4.76 -3.86,-8.62 -8.62,-8.62 h -138.4 c -4.76,0 -8.62,3.86 -8.62,8.62 z" /><g
       id="g26"><g
         clip-path="url(#clipPath32)"
         id="g28"><text
   id="text36"
   style="font-variant:normal;font-weight:bold;font-size:12.96000004px;font-family:Arial;-inkscape-font-specification:Arial-BoldMT;writing-mode:lr-tb;fill:#000000;fill-opacity:1;fill-rule:nonzero;stroke:none"
   transform="matrix(1,0,0,-1,171.12,157.08)"><tspan
     id="tspan34"
     y="0"
     x="0 9.3599997 14.40432 21.612961 28.8216 33.14016">Create</tspan></text>
</g></g><path
       id="path38"
       style="fill:#ffffff;fill-opacity:1;fill-rule:evenodd;stroke:none"
       d="m 296.28,303.76 c 0,4.75 3.85,8.6 8.6,8.6 h 152 c 4.75,0 8.6,-3.85 8.6,-8.6 v -34.4 c 0,-4.75 -3.85,-8.6 -8.6,-8.6 h -152 c -4.75,0 -8.6,3.85 -8.6,8.6 z" /><path
       id="path40"
       style="fill:none;stroke:#595959;stroke-width:0.72000003;stroke-linecap:butt;stroke-linejoin:round;stroke-miterlimit:10;stroke-dasharray:none;stroke-opacity:1"
       d="m 296.28,303.76 c 0,4.75 3.85,8.6 8.6,8.6 h 152 c 4.75,0 8.6,-3.85 8.6,-8.6 v -34.4 c 0,-4.75 -3.85,-8.6 -8.6,-8.6 h -152 c -4.75,0 -8.6,3.85 -8.6,8.6 z" /><g
       id="g42"><g
         clip-path="url(#clipPath48)"
         id="g44"><text
   id="text52"
   style="font-variant:normal;font-weight:bold;font-size:12.96000004px;font-family:Arial;-inkscape-font-specification:Arial-BoldMT;writing-mode:lr-tb;fill:#000000;fill-opacity:1;fill-rule:nonzero;stroke:none"
   transform="matrix(1,0,0,-1,368.74,287.71)"><tspan
     id="tspan50"
     y="0"
     x="0 8.6400003 16.554239 20.1528">Edit</tspan></text>
</g></g><g
       id="g54"><g
         clip-path="url(#clipPath60)"
         id="g56"><text
   id="text64"
   style="font-variant:normal;font-weight:normal;font-size:9.96000004px;font-family:ArialMT;-inkscape-font-specification:ArialMT;writing-mode:lr-tb;fill:#000000;fill-opacity:1;fill-rule:nonzero;stroke:none"
   transform="matrix(1,0,0,-1,310.63,274.99)"><tspan
     id="tspan62"
     y="0"
     x="0 3.34656 9.4520397 11.61336 13.77468 19.312441 24.322321 27.0912 29.94972 38.455559 43.99332 46.762199 52.26012 57.797878 63.295799 66.064682 71.60244 74.092438 79.630203 85.12812">(Files, metadata and</tspan></text>
</g></g><g
       id="g66"><g
         clip-path="url(#clipPath72)"
         id="g68"><text
   id="text76"
   style="font-variant:normal;font-weight:normal;font-size:9.96000004px;font-family:ArialMT;-inkscape-font-specification:ArialMT;writing-mode:lr-tb;fill:#000000;fill-opacity:1;fill-rule:nonzero;stroke:none"
   transform="matrix(1,0,0,-1,404.02,274.99)"><tspan
     id="tspan74"
     y="0"
     x="0 3.34656 8.8843203 13.8942 19.431959 24.92988 28.27644 33.30624 38.844002 43.853882">resources)</tspan></text>
</g></g><path
       id="path78"
       style="fill:#595959;fill-opacity:1;fill-rule:nonzero;stroke:none"
       d="m 227.64,288.74 58.19,-0.01 v -1 l -58.19,0.01 z m 57.19,2.49 6,-3 -6,-3 z" /><path
       id="path80"
       style="fill:#f3f3f3;fill-opacity:1;fill-rule:evenodd;stroke:none"
       d="m 171.72,257.52 h 38.7 v 38.82 h -38.7 z" /><path
       id="path82"
       style="fill:#c3c3c3;fill-opacity:1;fill-rule:evenodd;stroke:none"
       d="m 210.42,296.34 12.9,12.9 v -38.82 l -12.9,-12.9 z" /><path
       id="path84"
       style="fill:#f5f5f5;fill-opacity:1;fill-rule:evenodd;stroke:none"
       d="m 171.72,296.34 12.9,12.9 h 38.7 l -12.9,-12.9 z" /><g
       id="g86"><path
         id="path88"
         style="fill:none;stroke:#595959;stroke-width:0.72000003;stroke-linecap:butt;stroke-linejoin:miter;stroke-miterlimit:8;stroke-dasharray:2.88, 2.16;stroke-dashoffset:0;stroke-opacity:1"
         d="m 171.72,296.34 12.9,12.9 h 38.7 v -38.82 l -12.9,-12.9 h -38.7 z m 0,0 h 38.7 l 12.9,12.9 m -12.9,-12.9 v -38.82" /></g><g
       id="g90"><g
         clip-path="url(#clipPath96)"
         id="g92"><text
   id="text100"
   style="font-style:italic;font-variant:normal;font-weight:normal;font-size:11.06400013px;font-family:Arial;-inkscape-font-specification:Arial-ItalicMT;writing-mode:lr-tb;fill:#000000;fill-opacity:1;fill-rule:nonzero;stroke:none"
   transform="matrix(1,0,0,-1,138.82,244.37)"><tspan
     id="tspan98"
     y="0"
     x="0 7.324368 13.475952 19.561152 27.593616 29.994505 36.146088 42.231289 48.382874 54.468071 57.577057 65.498878 71.650467 77.138206 83.289795 89.374992 93.081429 98.613434">Knowledge Resource</tspan></text>
</g></g><g
       id="g102"><g
         clip-path="url(#clipPath108)"
         id="g104"><text
   id="text112"
   style="font-variant:normal;font-weight:normal;font-size:11.03999996px;font-family:ArialMT;-inkscape-font-specification:ArialMT;writing-mode:lr-tb;fill:#000000;fill-opacity:1;fill-rule:nonzero;stroke:none"
   transform="matrix(1,0,0,-1,174.6,231.14)"><tspan
     id="tspan110"
     y="0"
     x="0">(</tspan></text>
</g></g><g
       id="g114"><g
         clip-path="url(#clipPath120)"
         id="g116"><text
   id="text124"
   style="font-variant:normal;font-weight:bold;font-size:11.03999996px;font-family:Arial;-inkscape-font-specification:Arial-BoldMT;writing-mode:lr-tb;fill:#000000;fill-opacity:1;fill-rule:nonzero;stroke:none"
   transform="matrix(1,0,0,-1,178.32,231.14)"><tspan
     id="tspan122"
     y="0"
     x="0 7.9156799 12.21024 18.34848 22.06896">Draft</tspan></text>
</g></g><g
       id="g126"><g
         clip-path="url(#clipPath132)"
         id="g128"><text
   id="text136"
   style="font-variant:normal;font-weight:normal;font-size:11.03999996px;font-family:ArialMT;-inkscape-font-specification:ArialMT;writing-mode:lr-tb;fill:#000000;fill-opacity:1;fill-rule:nonzero;stroke:none"
   transform="matrix(1,0,0,-1,204.12,231.14)"><tspan
     id="tspan134"
     y="0"
     x="0">)</tspan></text>
</g></g><path
       id="path138"
       style="fill:#595959;fill-opacity:1;fill-rule:nonzero;stroke:none"
       d="m 191.78,189.33 v 30.79 h -1 v -30.79 z m 2.5,29.79 -3,6 -3,-6 z" /><path
       id="path140"
       style="fill:#f3f3f3;fill-opacity:1;fill-rule:evenodd;stroke:none"
       d="m 353.16,143.16 h 38.43 v 38.79 h -38.43 z" /><path
       id="path142"
       style="fill:#c3c3c3;fill-opacity:1;fill-rule:evenodd;stroke:none"
       d="m 391.59,181.95 12.81,12.81 v -38.79 l -12.81,-12.81 z" /><path
       id="path144"
       style="fill:#f5f5f5;fill-opacity:1;fill-rule:evenodd;stroke:none"
       d="m 353.16,181.95 12.81,12.81 h 38.43 l -12.81,-12.81 z" /><g
       id="g146"><path
         id="path148"
         style="fill:none;stroke:#595959;stroke-width:0.72000003;stroke-linecap:butt;stroke-linejoin:miter;stroke-miterlimit:8;stroke-dasharray:2.88, 2.16;stroke-dashoffset:0;stroke-opacity:1"
         d="m 353.16,181.95 12.81,12.81 h 38.43 v -38.79 l -12.81,-12.81 h -38.43 z m 0,0 h 38.43 l 12.81,12.81 m -12.81,-12.81 v -38.79" /></g><g
       id="g150"><g
         clip-path="url(#clipPath156)"
         id="g152"><text
   id="text160"
   style="font-style:italic;font-variant:normal;font-weight:normal;font-size:11.03999996px;font-family:Arial;-inkscape-font-specification:Arial-ItalicMT;writing-mode:lr-tb;fill:#000000;fill-opacity:1;fill-rule:nonzero;stroke:none"
   transform="matrix(1,0,0,-1,326.11,127.37)"><tspan
     id="tspan158"
     y="0"
     x="0 7.31952 13.45776 19.56288 27.588961 29.98464 36.122879 42.228001 48.366241 54.471359 57.584641 65.50032 71.638557 77.158562 83.26368 89.401917 93.078239 98.598244">Knowledge Resource</tspan></text>
</g></g><g
       id="g162"><g
         clip-path="url(#clipPath168)"
         id="g164"><text
   id="text172"
   style="font-variant:normal;font-weight:normal;font-size:11.06400013px;font-family:ArialMT;-inkscape-font-specification:ArialMT;writing-mode:lr-tb;fill:#000000;fill-opacity:1;fill-rule:nonzero;stroke:none"
   transform="matrix(1,0,0,-1,361.87,114.17)"><tspan
     id="tspan170"
     y="0"
     x="0">(</tspan></text>
</g></g><g
       id="g174"><g
         clip-path="url(#clipPath180)"
         id="g176"><text
   id="text184"
   style="font-variant:normal;font-weight:bold;font-size:11.06400013px;font-family:Arial;-inkscape-font-specification:Arial-BoldMT;writing-mode:lr-tb;fill:#000000;fill-opacity:1;fill-rule:nonzero;stroke:none"
   transform="matrix(1,0,0,-1,365.59,114.17)"><tspan
     id="tspan182"
     y="0"
     x="0 7.921824 12.22572 18.377304 22.061617">Draft</tspan></text>
</g></g><g
       id="g186"><g
         clip-path="url(#clipPath192)"
         id="g188"><text
   id="text196"
   style="font-variant:normal;font-weight:normal;font-size:11.06400013px;font-family:ArialMT;-inkscape-font-specification:ArialMT;writing-mode:lr-tb;fill:#000000;fill-opacity:1;fill-rule:nonzero;stroke:none"
   transform="matrix(1,0,0,-1,391.39,114.17)"><tspan
     id="tspan194"
     y="0"
     x="0">)</tspan></text>
</g></g><path
       id="path198"
       style="fill:#595959;fill-opacity:1;fill-rule:nonzero;stroke:none"
       d="m 381.5,259.92 0.33,-54.96 -1,-0.01 -0.33,54.97 z m 2.82,-53.95 -2.96,-6.01 -3.04,5.98 z" /><path
       id="path200"
       style="fill:#ffffff;fill-opacity:1;fill-rule:evenodd;stroke:none"
       d="m 478.56,178.72 c 0,4.75 3.85,8.6 8.6,8.6 H 625.6 c 4.75,0 8.6,-3.85 8.6,-8.6 v -34.4 c 0,-4.75 -3.85,-8.6 -8.6,-8.6 H 487.16 c -4.75,0 -8.6,3.85 -8.6,8.6 z" /><path
       id="path202"
       style="fill:none;stroke:#595959;stroke-width:0.72000003;stroke-linecap:butt;stroke-linejoin:round;stroke-miterlimit:10;stroke-dasharray:none;stroke-opacity:1"
       d="m 478.56,178.72 c 0,4.75 3.85,8.6 8.6,8.6 H 625.6 c 4.75,0 8.6,-3.85 8.6,-8.6 v -34.4 c 0,-4.75 -3.85,-8.6 -8.6,-8.6 H 487.16 c -4.75,0 -8.6,3.85 -8.6,8.6 z" /><g
       id="g204"><g
         clip-path="url(#clipPath210)"
         id="g206"><text
   id="text214"
   style="font-variant:normal;font-weight:bold;font-size:12px;font-family:Arial;-inkscape-font-specification:Arial-BoldMT;writing-mode:lr-tb;fill:#000000;fill-opacity:1;fill-rule:nonzero;stroke:none"
   transform="matrix(1,0,0,-1,534.67,157.03)"><tspan
     id="tspan212"
     y="0"
     x="0 8.0279999 15.36 22.691999 26.028 29.364 36.096001">Publish</tspan></text>
</g></g><path
       id="path216"
       style="fill:#f3f3f3;fill-opacity:1;fill-rule:evenodd;stroke:none"
       d="m 530.52,258 h 38.7 v 38.7 h -38.7 z" /><path
       id="path218"
       style="fill:#c3c3c3;fill-opacity:1;fill-rule:evenodd;stroke:none"
       d="m 569.22,296.7 12.9,12.9 V 270.9 L 569.22,258 Z" /><path
       id="path220"
       style="fill:#f5f5f5;fill-opacity:1;fill-rule:evenodd;stroke:none"
       d="m 530.52,296.7 12.9,12.9 h 38.7 l -12.9,-12.9 z" /><path
       id="path222"
       style="fill:none;stroke:#595959;stroke-width:0.72000003;stroke-linecap:butt;stroke-linejoin:miter;stroke-miterlimit:8;stroke-dasharray:none;stroke-opacity:1"
       d="m 530.52,296.7 12.9,12.9 h 38.7 V 270.9 L 569.22,258 h -38.7 z m 0,0 h 38.7 l 12.9,12.9 m -12.9,-12.9 V 258" /><g
       id="g224"><g
         clip-path="url(#clipPath230)"
         id="g226"><text
   id="text234"
   style="font-style:italic;font-variant:normal;font-weight:normal;font-size:11.03999996px;font-family:Arial;-inkscape-font-specification:Arial-ItalicMT;writing-mode:lr-tb;fill:#000000;fill-opacity:1;fill-rule:nonzero;stroke:none"
   transform="matrix(1,0,0,-1,503.95,243.91)"><tspan
     id="tspan232"
     y="0"
     x="0 7.31952 13.45776 19.56288 27.588961 29.98464 36.122879 42.228001 48.366241 54.471359 57.584641 65.50032 71.638557 77.158562 83.26368 89.401917 93.078239 98.598244">Knowledge Resource</tspan></text>
</g></g><g
       id="g236"><g
         clip-path="url(#clipPath242)"
         id="g238"><text
   id="text246"
   style="font-variant:normal;font-weight:normal;font-size:11.03999996px;font-family:ArialMT;-inkscape-font-specification:ArialMT;writing-mode:lr-tb;fill:#000000;fill-opacity:1;fill-rule:nonzero;stroke:none"
   transform="matrix(1,0,0,-1,526.27,230.71)"><tspan
     id="tspan244"
     y="0"
     x="0">(</tspan></text>
</g></g><g
       id="g248"><g
         clip-path="url(#clipPath254)"
         id="g250"><text
   id="text258"
   style="font-variant:normal;font-weight:bold;font-size:11.03999996px;font-family:Arial;-inkscape-font-specification:Arial-BoldMT;writing-mode:lr-tb;fill:#000000;fill-opacity:1;fill-rule:nonzero;stroke:none"
   transform="matrix(1,0,0,-1,529.99,230.71)"><tspan
     id="tspan256"
     y="0"
     x="0 7.31952 14.06496 20.755199 23.868481 26.98176 33.119999 39.821281 45.959518">Published</tspan></text>
</g></g><g
       id="g260"><g
         clip-path="url(#clipPath266)"
         id="g262"><text
   id="text270"
   style="font-variant:normal;font-weight:normal;font-size:11.03999996px;font-family:ArialMT;-inkscape-font-specification:ArialMT;writing-mode:lr-tb;fill:#000000;fill-opacity:1;fill-rule:nonzero;stroke:none"
   transform="matrix(1,0,0,-1,582.7,230.71)"><tspan
     id="tspan268"
     y="0"
     x="0">)</tspan></text>
</g></g><path
       id="path272"
       style="fill:#595959;fill-opacity:1;fill-rule:nonzero;stroke:none"
       d="m 556.82,187.3 v 31.62 h -1 V 187.3 Z m 2.5,30.62 -3,6 -3,-6 z" /><path
       id="path274"
       style="fill:#ffffff;fill-opacity:1;fill-rule:evenodd;stroke:none"
       d="m 301.56,385.82 c 0,4.76 3.86,8.62 8.62,8.62 h 138.4 c 4.76,0 8.62,-3.86 8.62,-8.62 v -34.48 c 0,-4.76 -3.86,-8.62 -8.62,-8.62 h -138.4 c -4.76,0 -8.62,3.86 -8.62,8.62 z" /><path
       id="path276"
       style="fill:none;stroke:#595959;stroke-width:0.72000003;stroke-linecap:butt;stroke-linejoin:round;stroke-miterlimit:8;stroke-dasharray:none;stroke-opacity:1"
       d="m 301.56,385.82 c 0,4.76 3.86,8.62 8.62,8.62 h 138.4 c 4.76,0 8.62,-3.86 8.62,-8.62 v -34.48 c 0,-4.76 -3.86,-8.62 -8.62,-8.62 h -138.4 c -4.76,0 -8.62,3.86 -8.62,8.62 z" /><g
       id="g278"><g
         clip-path="url(#clipPath284)"
         id="g280"><text
   id="text288"
   style="font-variant:normal;font-weight:bold;font-size:12.96000004px;font-family:Arial;-inkscape-font-specification:Arial-BoldMT;writing-mode:lr-tb;fill:#000000;fill-opacity:1;fill-rule:nonzero;stroke:none"
   transform="matrix(1,0,0,-1,341.21,363.77)"><tspan
     id="tspan286"
     y="0"
     x="0 9.3571196 16.56288 26.866079 30.35232 37.31184 44.517601 49.55904 56.764801 60.36768 68.28624">New version</tspan></text>
</g></g><g
       id="g290"><g
         clip-path="url(#clipPath296)"
         id="g292"><path
           id="path298"
           style="fill:#595959;fill-opacity:1;fill-rule:nonzero;stroke:none"
           d="m 549.7,309.65 -0.03,1.38 -0.1,1.41 -0.17,1.4 -0.23,1.4 -0.3,1.39 -0.36,1.4 -0.42,1.38 -0.49,1.39 -0.53,1.37 -0.6,1.37 -0.67,1.36 -0.71,1.35 -0.76,1.34 -0.83,1.34 -0.87,1.32 -0.93,1.32 -0.98,1.3 -1.03,1.29 -1.07,1.28 -1.12,1.26 -1.17,1.25 -1.22,1.23 -2.55,2.42 -2.73,2.35 -2.89,2.29 -3.04,2.21 -3.18,2.13 -3.33,2.03 -3.44,1.95 -3.56,1.85 -3.67,1.74 -3.77,1.64 -3.87,1.52 -3.95,1.4 -4.03,1.28 -4.1,1.15 -4.14,1.02 -4.21,0.86 -4.25,0.73 -4.28,0.58 -4.31,0.41 -3.65,0.19 -0.05,-1 3.61,-0.19 4.27,-0.41 4.24,-0.56 4.21,-0.73 4.18,-0.86 4.12,-1 4.06,-1.14 4,-1.27 3.91,-1.39 3.84,-1.51 3.74,-1.62 3.64,-1.73 3.53,-1.83 3.41,-1.93 3.29,-2.02 3.15,-2.1 3.01,-2.18 2.85,-2.26 2.7,-2.33 2.53,-2.39 1.2,-1.22 1.15,-1.22 1.1,-1.25 1.06,-1.25 1.01,-1.28 0.96,-1.27 0.91,-1.29 0.86,-1.3 0.81,-1.3 0.75,-1.32 0.7,-1.32 0.64,-1.32 0.58,-1.33 0.53,-1.34 0.47,-1.35 0.41,-1.34 0.36,-1.35 0.28,-1.35 0.23,-1.36 0.16,-1.36 0.1,-1.35 0.03,-1.38 z m -86.47,61.75 -6.09,-2.82 5.91,-3.18 z" /></g></g><path
       id="path300"
       style="fill:#595959;fill-opacity:1;fill-rule:nonzero;stroke:none"
       d="m 301.53,369.14 -4.57,-0.08 -4.59,-0.26 -4.55,-0.42 -4.54,-0.58 -4.5,-0.73 -4.45,-0.88 -4.4,-1.02 -4.33,-1.15 -4.27,-1.29 -4.18,-1.41 -4.1,-1.53 -3.99,-1.65 -3.9,-1.76 -3.77,-1.86 -3.64,-1.95 -3.52,-2.06 -3.37,-2.14 -3.23,-2.22 -3.05,-2.3 -2.9,-2.37 -1.38,-1.22 -1.33,-1.23 -1.28,-1.24 -1.24,-1.26 -1.2,-1.27 -1.14,-1.28 -1.08,-1.31 -1.04,-1.3 -0.98,-1.33 -0.93,-1.33 -0.87,-1.34 -0.82,-1.36 -0.75,-1.35 -0.7,-1.38 -0.63,-1.38 -0.58,-1.38 -0.51,-1.4 -0.45,-1.39 -0.38,-1.41 -0.34,-2.02 0.99,-0.16 0.31,1.92 0.37,1.37 0.44,1.35 0.49,1.35 0.56,1.35 0.62,1.35 0.68,1.34 0.74,1.33 0.79,1.33 0.86,1.31 0.91,1.31 0.97,1.3 1.02,1.29 1.06,1.27 1.12,1.27 1.18,1.25 1.22,1.24 1.27,1.22 1.32,1.22 1.35,1.2 2.86,2.34 3.02,2.27 3.2,2.21 3.33,2.12 3.49,2.03 3.61,1.95 3.75,1.84 3.86,1.74 3.97,1.64 4.06,1.52 4.15,1.4 4.23,1.28 4.31,1.15 4.36,1.01 4.43,0.87 4.46,0.73 4.5,0.57 4.52,0.42 4.55,0.26 4.57,0.08 z m -99.86,-53.6 2.33,-6.29 3.63,5.64 z" /><path
       id="path302"
       style="fill:#ffffff;fill-opacity:1;fill-rule:evenodd;stroke:none"
       d="m 301.08,74.82 c 0,5.07 4.11,9.18 9.18,9.18 h 139.68 c 5.07,0 9.18,-4.11 9.18,-9.18 V 38.1 c 0,-5.07 -4.11,-9.18 -9.18,-9.18 H 310.26 c -5.07,0 -9.18,4.11 -9.18,9.18 z" /><path
       id="path304"
       style="fill:none;stroke:#595959;stroke-width:0.72000003;stroke-linecap:butt;stroke-linejoin:round;stroke-miterlimit:8;stroke-dasharray:none;stroke-opacity:1"
       d="m 301.08,74.82 c 0,5.07 4.11,9.18 9.18,9.18 h 139.68 c 5.07,0 9.18,-4.11 9.18,-9.18 V 38.1 c 0,-5.07 -4.11,-9.18 -9.18,-9.18 H 310.26 c -5.07,0 -9.18,4.11 -9.18,9.18 z" /><g
       id="g306"><g
         clip-path="url(#clipPath312)"
         id="g308"><text
   id="text316"
   style="font-variant:normal;font-weight:bold;font-size:12.02400017px;font-family:Arial;-inkscape-font-specification:Arial-BoldMT;writing-mode:lr-tb;fill:#000000;fill-opacity:1;fill-rule:nonzero;stroke:none"
   transform="matrix(1,0,0,-1,351.86,51.96)"><tspan
     id="tspan314"
     y="0"
     x="0 8.2845364 14.96988 21.715343 29.062008 35.747353 39.090023 45.823463 49.779362">Associate</tspan></text>
</g></g><path
       id="path318"
       style="fill:#595959;fill-opacity:1;fill-rule:nonzero;stroke:none"
       d="m 377.93,106.93 -0.1,-4 1,-0.02 0.1,4 z m -0.18,-6.995 -0.1,-3.999 1,-0.025 0.1,3.999 z m -2.6,-3.767 2.85,-6.075 3.15,5.922 z" /><path
       id="path320"
       style="fill:#f3f3f3;fill-opacity:1;fill-rule:evenodd;stroke:none"
       d="m 530.52,39 h 38.7 v 38.7 h -38.7 z" /><path
       id="path322"
       style="fill:#c3c3c3;fill-opacity:1;fill-rule:evenodd;stroke:none"
       d="m 569.22,77.7 12.9,12.9 V 51.9 L 569.22,39 Z" /><path
       id="path324"
       style="fill:#f5f5f5;fill-opacity:1;fill-rule:evenodd;stroke:none"
       d="m 530.52,77.7 12.9,12.9 h 38.7 l -12.9,-12.9 z" /><path
       id="path326"
       style="fill:none;stroke:#595959;stroke-width:0.72000003;stroke-linecap:butt;stroke-linejoin:miter;stroke-miterlimit:8;stroke-dasharray:none;stroke-opacity:1"
       d="m 530.52,77.7 12.9,12.9 h 38.7 V 51.9 L 569.22,39 h -38.7 z m 0,0 h 38.7 l 12.9,12.9 M 569.22,77.7 V 39" /><g
       id="g328"><g
         clip-path="url(#clipPath334)"
         id="g330"><text
   id="text338"
   style="font-style:italic;font-variant:normal;font-weight:normal;font-size:11.03999996px;font-family:Arial;-inkscape-font-specification:Arial-ItalicMT;writing-mode:lr-tb;fill:#000000;fill-opacity:1;fill-rule:nonzero;stroke:none"
   transform="matrix(1,0,0,-1,503.95,24.792)"><tspan
     id="tspan336"
     y="0"
     x="0 7.31952 13.45776 19.56288 27.588961 29.98464 36.122879 42.228001 48.366241 54.471359 57.584641 65.50032 71.638557 77.158562 83.26368 89.401917 93.078239 98.598244">Knowledge Resource</tspan></text>
</g></g><g
       id="g340"><g
         clip-path="url(#clipPath346)"
         id="g342"><text
   id="text350"
   style="font-variant:normal;font-weight:normal;font-size:11.03999996px;font-family:ArialMT;-inkscape-font-specification:ArialMT;writing-mode:lr-tb;fill:#000000;fill-opacity:1;fill-rule:nonzero;stroke:none"
   transform="matrix(1,0,0,-1,539.71,11.592)"><tspan
     id="tspan348"
     y="0"
     x="0">(</tspan></text>
</g></g><g
       id="g352"><g
         clip-path="url(#clipPath358)"
         id="g354"><text
   id="text362"
   style="font-variant:normal;font-weight:bold;font-size:11.03999996px;font-family:Arial;-inkscape-font-specification:Arial-BoldMT;writing-mode:lr-tb;fill:#000000;fill-opacity:1;fill-rule:nonzero;stroke:none"
   transform="matrix(1,0,0,-1,543.43,11.592)"><tspan
     id="tspan360"
     y="0"
     x="0 7.9156799 12.21024 18.34848 22.06896">Draft</tspan></text>
</g></g><g
       id="g364"><g
         clip-path="url(#clipPath370)"
         id="g366"><text
   id="text374"
   style="font-variant:normal;font-weight:normal;font-size:11.03999996px;font-family:ArialMT;-inkscape-font-specification:ArialMT;writing-mode:lr-tb;fill:#000000;fill-opacity:1;fill-rule:nonzero;stroke:none"
   transform="matrix(1,0,0,-1,569.26,11.592)"><tspan
     id="tspan372"
     y="0"
     x="0">)</tspan></text>
</g></g><path
       id="path376"
       style="fill:#595959;fill-opacity:1;fill-rule:nonzero;stroke:none"
       d="m 465.97,56.66 37.66,-0.706 -0.02,-1 -37.66,0.706 z m 36.71,1.812 5.94,-3.112 -6.06,-2.887 z" /><path
       id="path378"
       style="fill:#595959;fill-opacity:1;fill-rule:nonzero;stroke:none"
       d="m 420.24,162.5 h 4 v -1 h -4 z m 7,0 h 4 v -1 h -4 z m 7,0 h 4 v -1 h -4 z m 7,0 4,-0.01 v -1 l -4,0.01 z m 7,-0.01 h 4 v -1 h -4 z m 7,0 h 4 v -1 h -4 z m 4.82,2.5 6,-3 -6,-3 z" /></g></svg>
